<svg xmlns="http://www.w3.org/2000/svg" xmlns:xlink="http://www.w3.org/1999/xlink" width="500" zoomAndPan="magnify" viewBox="0 0 375 374.999991" height="500" preserveAspectRatio="xMidYMid meet" version="1.0"><defs><g/><clipPath id="2b6a4d7e2f"><path d="M 129.15625 129.835938 L 249.15625 129.835938 L 249.15625 264.085938 L 129.15625 264.085938 Z M 129.15625 129.835938 " clip-rule="nonzero"/></clipPath></defs><g fill="#000000" fill-opacity="1"><g transform="translate(55.323753, 143.170632)"><g><path d="M -15.390625 -28.203125 L -14.109375 -30.140625 C -12.222656 -32.953125 -10.132812 -35.066406 -7.84375 -36.484375 C -5.5625 -37.910156 -3.1875 -38.59375 -0.71875 -38.53125 C 1.738281 -38.46875 4.191406 -37.617188 6.640625 -35.984375 C 8.429688 -34.785156 9.835938 -33.359375 10.859375 -31.703125 C 11.878906 -30.054688 12.507812 -28.265625 12.75 -26.328125 C 12.988281 -24.390625 12.835938 -22.390625 12.296875 -20.328125 C 11.765625 -18.265625 10.828125 -16.226562 9.484375 -14.21875 L 8.28125 -12.421875 C 7.207031 -10.804688 6.269531 -9.640625 5.46875 -8.921875 C 4.664062 -8.210938 3.90625 -7.78125 3.1875 -7.625 C 3.65625 -6.4375 3.351562 -5.035156 2.28125 -3.421875 L 0.515625 -0.765625 L -0.328125 -1.328125 C 0.140625 -2.472656 0.332031 -3.421875 0.25 -4.171875 C 0.175781 -4.929688 -0.0859375 -5.578125 -0.546875 -6.109375 C -1.015625 -6.648438 -1.59375 -7.148438 -2.28125 -7.609375 L -15.796875 -16.625 C -17.035156 -17.445312 -18.148438 -17.84375 -19.140625 -17.8125 C -20.140625 -17.789062 -21.207031 -17.175781 -22.34375 -15.96875 L -23.171875 -16.515625 L -21.390625 -19.203125 C -20.316406 -20.816406 -19.144531 -21.640625 -17.875 -21.671875 C -18.007812 -22.390625 -17.894531 -23.253906 -17.53125 -24.265625 C -17.175781 -25.273438 -16.460938 -26.585938 -15.390625 -28.203125 Z M 7.234375 -14.109375 C 9.234375 -17.109375 10.007812 -19.945312 9.5625 -22.625 C 9.113281 -25.300781 7.125 -27.816406 3.59375 -30.171875 C 1.582031 -31.515625 -0.300781 -32.363281 -2.0625 -32.71875 C -3.820312 -33.082031 -5.425781 -33.085938 -6.875 -32.734375 C -8.320312 -32.378906 -9.609375 -31.757812 -10.734375 -30.875 C -11.859375 -30 -12.804688 -28.988281 -13.578125 -27.84375 C -14.335938 -26.695312 -14.742188 -25.738281 -14.796875 -24.96875 C -14.847656 -24.207031 -14.628906 -23.535156 -14.140625 -22.953125 C -13.660156 -22.378906 -13 -21.804688 -12.15625 -21.234375 L 0.921875 -12.515625 C 2.046875 -11.773438 3.101562 -11.445312 4.09375 -11.53125 C 5.09375 -11.613281 6.140625 -12.472656 7.234375 -14.109375 Z M 7.234375 -14.109375 "/></g></g></g><g fill="#000000" fill-opacity="1"><g transform="translate(77.136101, 111.618622)"><g><path d="M 0.5625 -0.515625 L 0.25 -0.21875 L -0.4375 -0.96875 C 0.132812 -2.09375 0.359375 -3.148438 0.234375 -4.140625 C 0.109375 -5.140625 -0.175781 -6.253906 -0.625 -7.484375 L -6.953125 -24 C -7.453125 -25.351562 -8.171875 -26.21875 -9.109375 -26.59375 C -10.054688 -26.976562 -11.019531 -26.835938 -12 -26.171875 L -12.671875 -26.921875 L -11.625 -27.859375 C -11.039062 -28.378906 -10.425781 -28.75 -9.78125 -28.96875 C -9.144531 -29.195312 -8.519531 -29.242188 -7.90625 -29.109375 C -7.988281 -29.753906 -7.832031 -30.425781 -7.4375 -31.125 C -7.039062 -31.832031 -6.289062 -32.679688 -5.1875 -33.671875 C -4.769531 -33.023438 -4.210938 -32.503906 -3.515625 -32.109375 C -2.828125 -31.710938 -2.113281 -31.320312 -1.375 -30.9375 L 15.171875 -22.8125 C 16.597656 -22.113281 17.828125 -21.570312 18.859375 -21.1875 C 19.898438 -20.8125 20.957031 -20.851562 22.03125 -21.3125 L 22.71875 -20.5625 L 21.0625 -19.078125 C 19.625 -17.773438 18.285156 -17.269531 17.046875 -17.5625 C 17.210938 -16.300781 16.582031 -15.019531 15.15625 -13.71875 L 13.453125 -12.171875 L 12.765625 -12.921875 C 13.585938 -14.179688 13.898438 -15.203125 13.703125 -15.984375 C 13.515625 -16.765625 12.847656 -17.4375 11.703125 -18 L 6.53125 -20.640625 L -0.84375 -13.96875 L 1.15625 -9.375 C 1.820312 -7.875 2.632812 -7.039062 3.59375 -6.875 C 4.550781 -6.71875 5.601562 -6.921875 6.75 -7.484375 L 7.4375 -6.734375 L 6.484375 -5.875 C 5.046875 -4.570312 3.703125 -4.066406 2.453125 -4.359375 C 2.628906 -3.097656 2 -1.816406 0.5625 -0.515625 Z M -5.71875 -26.796875 L -1.734375 -16.265625 L 4.328125 -21.75 Z M -5.71875 -26.796875 "/></g></g></g><g fill="#000000" fill-opacity="1"><g transform="translate(102.772674, 88.95787)"><g><path d="M 9.8125 -5.421875 L 6.28125 -3.46875 L 5.796875 -4.359375 C 6.972656 -5.335938 7.765625 -6.1875 8.171875 -6.90625 C 8.585938 -7.625 8.757812 -8.285156 8.6875 -8.890625 C 8.613281 -9.503906 8.40625 -10.113281 8.0625 -10.71875 L -0.09375 -25.515625 C -0.476562 -26.191406 -0.898438 -26.773438 -1.359375 -27.265625 C -1.828125 -27.753906 -2.378906 -28.054688 -3.015625 -28.171875 C -3.660156 -28.285156 -4.429688 -28.09375 -5.328125 -27.59375 C -6.390625 -27.007812 -7.191406 -25.890625 -7.734375 -24.234375 C -8.273438 -22.585938 -8.285156 -20.585938 -7.765625 -18.234375 L -8.640625 -17.75 L -9.65625 -19.578125 C -10.101562 -20.398438 -10.390625 -21.15625 -10.515625 -21.84375 C -10.640625 -22.53125 -10.566406 -23.242188 -10.296875 -23.984375 C -11.265625 -23.578125 -12.128906 -24.0625 -12.890625 -25.4375 L -13.3125 -26.21875 L -12.4375 -26.703125 C -12.03125 -26.410156 -11.640625 -26.316406 -11.265625 -26.421875 C -10.898438 -26.523438 -10.429688 -26.734375 -9.859375 -27.046875 L 8.984375 -37.453125 C 9.535156 -37.765625 9.960938 -38.050781 10.265625 -38.3125 C 10.566406 -38.570312 10.691406 -38.953125 10.640625 -39.453125 L 11.53125 -39.9375 L 11.953125 -39.15625 C 12.710938 -37.78125 12.660156 -36.789062 11.796875 -36.1875 C 12.554688 -36.019531 13.195312 -35.703125 13.71875 -35.234375 C 14.25 -34.765625 14.738281 -34.117188 15.1875 -33.296875 L 16.203125 -31.46875 L 15.3125 -30.984375 C 13.613281 -32.679688 11.914062 -33.738281 10.21875 -34.15625 C 8.53125 -34.582031 7.160156 -34.5 6.109375 -33.90625 C 5.234375 -33.425781 4.671875 -32.882812 4.421875 -32.28125 C 4.171875 -31.675781 4.125 -31.046875 4.28125 -30.390625 C 4.445312 -29.734375 4.722656 -29.066406 5.109375 -28.390625 L 13.265625 -13.59375 C 13.609375 -12.988281 14.007812 -12.488281 14.46875 -12.09375 C 14.925781 -11.695312 15.570312 -11.484375 16.40625 -11.453125 C 17.238281 -11.421875 18.394531 -11.648438 19.875 -12.140625 L 20.359375 -11.25 L 16.796875 -9.28125 C 15.992188 -8.832031 15.222656 -8.554688 14.484375 -8.453125 C 13.742188 -8.359375 13.097656 -8.445312 12.546875 -8.71875 C 12.410156 -7.457031 11.5 -6.359375 9.8125 -5.421875 Z M 9.8125 -5.421875 "/></g></g></g><g fill="#000000" fill-opacity="1"><g transform="translate(132.3641, 72.999384)"><g><path d="M 0.734375 -0.203125 L 0.3125 -0.09375 L 0.03125 -1.078125 C 1.050781 -1.816406 1.726562 -2.660156 2.0625 -3.609375 C 2.394531 -4.554688 2.632812 -5.679688 2.78125 -6.984375 L 4.5 -24.59375 C 4.644531 -26.019531 4.378906 -27.113281 3.703125 -27.875 C 3.035156 -28.632812 2.113281 -28.9375 0.9375 -28.78125 L 0.65625 -29.734375 L 2.015625 -30.109375 C 2.765625 -30.316406 3.476562 -30.378906 4.15625 -30.296875 C 4.84375 -30.210938 5.425781 -29.972656 5.90625 -29.578125 C 6.125 -30.191406 6.566406 -30.722656 7.234375 -31.171875 C 7.898438 -31.628906 8.941406 -32.054688 10.359375 -32.453125 C 10.460938 -31.679688 10.734375 -30.96875 11.171875 -30.3125 C 11.617188 -29.65625 12.085938 -28.984375 12.578125 -28.296875 L 23.765625 -13.65625 C 24.734375 -12.382812 25.59375 -11.347656 26.34375 -10.546875 C 27.101562 -9.742188 28.0625 -9.3125 29.21875 -9.25 L 29.5 -8.265625 L 27.359375 -7.671875 C 25.492188 -7.148438 24.070312 -7.296875 23.09375 -8.109375 C 22.6875 -6.898438 21.546875 -6.035156 19.671875 -5.515625 L 17.46875 -4.890625 L 17.1875 -5.875 C 18.488281 -6.625 19.222656 -7.390625 19.390625 -8.171875 C 19.566406 -8.960938 19.273438 -9.867188 18.515625 -10.890625 L 15.0625 -15.5625 L 5.46875 -12.875 L 5.203125 -7.859375 C 5.140625 -6.222656 5.503906 -5.113281 6.296875 -4.53125 C 7.085938 -3.957031 8.113281 -3.675781 9.375 -3.6875 L 9.65625 -2.703125 L 8.421875 -2.359375 C 6.554688 -1.835938 5.132812 -1.984375 4.15625 -2.796875 C 3.738281 -1.585938 2.597656 -0.722656 0.734375 -0.203125 Z M 6.828125 -26.546875 L 5.71875 -15.34375 L 13.59375 -17.546875 Z M 6.828125 -26.546875 "/></g></g></g><g fill="#000000" fill-opacity="1"><g transform="translate(166.092504, 64.715717)"><g/></g></g><g fill="#000000" fill-opacity="1"><g transform="translate(182.52419, 62.638353)"><g><path d="M 16.40625 1.734375 L 14.46875 1.59375 L 5.4375 -23.640625 C 5.207031 -24.265625 4.882812 -24.929688 4.46875 -25.640625 C 4.0625 -26.347656 3.378906 -26.914062 2.421875 -27.34375 L 2.5 -28.34375 L 4.671875 -28.1875 C 6.597656 -28.039062 7.878906 -27.414062 8.515625 -26.3125 C 8.910156 -26.800781 9.460938 -27.148438 10.171875 -27.359375 C 10.890625 -27.578125 11.707031 -27.648438 12.625 -27.578125 L 15.28125 -27.375 L 15.203125 -26.375 C 14.222656 -26.34375 13.425781 -26.128906 12.8125 -25.734375 C 12.195312 -25.335938 11.859375 -24.707031 11.796875 -23.84375 C 11.742188 -23.101562 11.925781 -22.132812 12.34375 -20.9375 L 17.90625 -5.546875 L 25.3125 -19.578125 C 25.5625 -20.015625 25.738281 -20.453125 25.84375 -20.890625 C 25.957031 -21.335938 26.03125 -21.722656 26.0625 -22.046875 C 26.125 -22.890625 25.878906 -23.613281 25.328125 -24.21875 C 24.785156 -24.820312 23.976562 -25.34375 22.90625 -25.78125 L 22.984375 -26.78125 L 23.953125 -26.71875 C 25.878906 -26.570312 27.164062 -25.945312 27.8125 -24.84375 C 28.613281 -25.832031 29.976562 -26.253906 31.90625 -26.109375 L 32.546875 -26.0625 L 32.46875 -25.0625 C 31.40625 -24.78125 30.585938 -24.285156 30.015625 -23.578125 C 29.453125 -22.867188 28.9375 -22.09375 28.46875 -21.25 Z M 16.40625 1.734375 "/></g></g></g><g fill="#000000" fill-opacity="1"><g transform="translate(216.404371, 65.586424)"><g><path d="M 0.734375 0.234375 L 0.3125 0.09375 L 0.625 -0.875 C 1.882812 -0.9375 2.910156 -1.269531 3.703125 -1.875 C 4.503906 -2.488281 5.320312 -3.296875 6.15625 -4.296875 L 17.28125 -18.0625 C 18.1875 -19.175781 18.566406 -20.238281 18.421875 -21.25 C 18.273438 -22.257812 17.671875 -23.015625 16.609375 -23.515625 L 16.90625 -24.46875 L 18.25 -24.046875 C 18.988281 -23.804688 19.617188 -23.460938 20.140625 -23.015625 C 20.660156 -22.578125 21.015625 -22.0625 21.203125 -21.46875 C 21.710938 -21.851562 22.367188 -22.050781 23.171875 -22.0625 C 23.984375 -22.082031 25.09375 -21.863281 26.5 -21.40625 C 26.164062 -20.707031 26 -19.960938 26 -19.171875 C 26.007812 -18.378906 26.03125 -17.566406 26.0625 -16.734375 L 27.359375 1.640625 C 27.472656 3.242188 27.625 4.585938 27.8125 5.671875 C 28 6.765625 28.5625 7.65625 29.5 8.34375 L 29.1875 9.3125 L 27.078125 8.640625 C 25.234375 8.046875 24.125 7.140625 23.75 5.921875 C 22.738281 6.703125 21.3125 6.796875 19.46875 6.203125 L 17.28125 5.515625 L 17.59375 4.546875 C 19.09375 4.628906 20.128906 4.390625 20.703125 3.828125 C 21.273438 3.265625 21.523438 2.351562 21.453125 1.09375 L 21.125 -4.71875 L 11.65625 -7.75 L 8.671875 -3.703125 C 7.710938 -2.367188 7.40625 -1.242188 7.75 -0.328125 C 8.09375 0.578125 8.800781 1.378906 9.875 2.078125 L 9.5625 3.046875 L 8.34375 2.65625 C 6.488281 2.070312 5.378906 1.164062 5.015625 -0.0625 C 4.003906 0.71875 2.578125 0.816406 0.734375 0.234375 Z M 20.296875 -18.40625 L 13.203125 -9.671875 L 20.984375 -7.1875 Z M 20.296875 -18.40625 "/></g></g></g><g fill="#000000" fill-opacity="1"><g transform="translate(248.862773, 76.141085)"><g><path d="M 42.3125 -7.375 L 43.484375 -6.65625 L 43 -5.875 C 41.363281 -6.394531 40.050781 -6.445312 39.0625 -6.03125 C 38.082031 -5.613281 37.195312 -4.765625 36.40625 -3.484375 L 29.84375 7.1875 C 28.164062 9.914062 25.984375 11.46875 23.296875 11.84375 C 20.617188 12.226562 17.625 11.398438 14.3125 9.359375 C 11.875 7.867188 10.101562 6.289062 9 4.625 C 7.894531 2.96875 7.363281 1.285156 7.40625 -0.421875 C 7.445312 -2.140625 7.976562 -3.828125 9 -5.484375 L 15.484375 -16.015625 C 16.273438 -17.304688 16.664062 -18.519531 16.65625 -19.65625 C 16.65625 -20.789062 16.070312 -21.957031 14.90625 -23.15625 L 15.390625 -23.9375 L 18.140625 -22.25 C 18.984375 -21.726562 19.613281 -21.179688 20.03125 -20.609375 C 20.445312 -20.046875 20.675781 -19.453125 20.71875 -18.828125 C 21.832031 -19.367188 23.234375 -19.113281 24.921875 -18.0625 L 27.53125 -16.46875 L 27.046875 -15.6875 C 25.898438 -16.050781 24.910156 -16.144531 24.078125 -15.96875 C 23.242188 -15.800781 22.539062 -15.441406 21.96875 -14.890625 C 21.394531 -14.347656 20.882812 -13.707031 20.4375 -12.96875 L 14.734375 -3.71875 C 11.785156 1.070312 12.546875 4.835938 17.015625 7.578125 C 19.390625 9.046875 21.570312 9.582031 23.5625 9.1875 C 25.5625 8.800781 27.21875 7.535156 28.53125 5.390625 L 34.515625 -4.3125 C 35.066406 -5.207031 35.441406 -6.039062 35.640625 -6.8125 C 35.847656 -7.59375 35.796875 -8.367188 35.484375 -9.140625 C 35.171875 -9.921875 34.507812 -10.78125 33.5 -11.71875 L 33.984375 -12.5 L 35.5 -11.5625 C 37.15625 -10.539062 38.019531 -9.398438 38.09375 -8.140625 C 38.65625 -8.390625 39.300781 -8.441406 40.03125 -8.296875 C 40.769531 -8.160156 41.53125 -7.851562 42.3125 -7.375 Z M 42.3125 -7.375 "/></g></g></g><g fill="#000000" fill-opacity="1"><g transform="translate(280.177555, 96.336507)"><g><path d="M 24.375 11.828125 L 22.953125 13.265625 C 22.203125 14.023438 21.515625 14.535156 20.890625 14.796875 C 20.273438 15.054688 19.613281 15.160156 18.90625 15.109375 C 19.550781 15.953125 19.3125 16.941406 18.1875 18.078125 L 17.625 18.640625 L 16.90625 17.921875 C 17.070312 17.492188 17.035156 17.113281 16.796875 16.78125 C 16.554688 16.445312 16.21875 16.066406 15.78125 15.640625 L 8.5625 8.484375 C 7.1875 7.117188 6.613281 5.804688 6.84375 4.546875 C 5.582031 4.785156 4.265625 4.226562 2.890625 2.875 L 0.625 0.625 L 1.34375 -0.09375 C 2.382812 0.53125 3.28125 0.890625 4.03125 0.984375 C 4.78125 1.078125 5.46875 0.953125 6.09375 0.609375 C 6.726562 0.273438 7.375 -0.222656 8.03125 -0.890625 L 19.78125 -12.75 C 20.550781 -13.53125 21.003906 -14.363281 21.140625 -15.25 C 21.285156 -16.132812 20.890625 -17.34375 19.953125 -18.875 L 20.65625 -19.59375 L 22.921875 -17.34375 C 24.296875 -15.988281 24.875 -14.6875 24.65625 -13.4375 C 25.90625 -13.664062 27.21875 -13.097656 28.59375 -11.734375 L 30.828125 -9.515625 L 30.125 -8.796875 C 28.601562 -9.703125 27.394531 -10.109375 26.5 -10.015625 C 25.601562 -9.921875 24.75 -9.460938 23.9375 -8.640625 L 12.8125 2.59375 C 11.507812 3.90625 10.820312 5.140625 10.75 6.296875 C 10.675781 7.453125 11.40625 8.773438 12.9375 10.265625 C 14.382812 11.703125 16.023438 12.503906 17.859375 12.671875 C 19.703125 12.847656 21.632812 12.328125 23.65625 11.109375 Z M 24.375 11.828125 "/></g></g></g><g fill="#000000" fill-opacity="1"><g transform="translate(301.417459, 117.60665)"><g><path d="M 6.0625 9.421875 L 3.890625 6.03125 L 4.75 5.484375 C 5.800781 6.597656 6.695312 7.332031 7.4375 7.6875 C 8.1875 8.050781 8.863281 8.175781 9.46875 8.0625 C 10.070312 7.945312 10.664062 7.703125 11.25 7.328125 L 25.453125 -1.828125 C 26.109375 -2.242188 26.664062 -2.703125 27.125 -3.203125 C 27.582031 -3.710938 27.84375 -4.289062 27.90625 -4.9375 C 27.96875 -5.582031 27.722656 -6.332031 27.171875 -7.1875 C 26.515625 -8.207031 25.34375 -8.929688 23.65625 -9.359375 C 21.96875 -9.796875 19.972656 -9.675781 17.671875 -9 L 17.125 -9.828125 L 18.875 -10.953125 C 19.664062 -11.460938 20.398438 -11.800781 21.078125 -11.96875 C 21.765625 -12.144531 22.476562 -12.117188 23.21875 -11.890625 C 22.757812 -12.835938 23.1875 -13.734375 24.5 -14.578125 L 25.25 -15.0625 L 25.796875 -14.234375 C 25.523438 -13.796875 25.457031 -13.394531 25.59375 -13.03125 C 25.726562 -12.664062 25.972656 -12.210938 26.328125 -11.671875 L 37.984375 6.421875 C 38.328125 6.953125 38.640625 7.359375 38.921875 7.640625 C 39.203125 7.921875 39.585938 8.015625 40.078125 7.921875 L 40.625 8.78125 L 39.875 9.265625 C 38.5625 10.109375 37.566406 10.125 36.890625 9.3125 C 36.785156 10.082031 36.515625 10.742188 36.078125 11.296875 C 35.648438 11.847656 35.039062 12.378906 34.25 12.890625 L 32.5 14.015625 L 31.953125 13.15625 C 33.523438 11.351562 34.460938 9.59375 34.765625 7.875 C 35.066406 6.164062 34.894531 4.800781 34.25 3.78125 C 33.707031 2.945312 33.125 2.421875 32.5 2.203125 C 31.882812 1.992188 31.253906 1.992188 30.609375 2.203125 C 29.972656 2.421875 29.328125 2.738281 28.671875 3.15625 L 14.46875 12.3125 C 13.882812 12.6875 13.410156 13.117188 13.046875 13.609375 C 12.679688 14.097656 12.507812 14.757812 12.53125 15.59375 C 12.5625 16.425781 12.875 17.566406 13.46875 19.015625 L 12.609375 19.5625 L 10.390625 16.125 C 9.898438 15.351562 9.578125 14.601562 9.421875 13.875 C 9.273438 13.144531 9.320312 12.492188 9.5625 11.921875 C 8.28125 11.878906 7.113281 11.046875 6.0625 9.421875 Z M 6.0625 9.421875 "/></g></g></g><g fill="#000000" fill-opacity="1"><g transform="translate(67.497084, 338.439042)"><g><path d="M 27.375 -22.265625 L 27.375 -21.546875 C 26.132812 -21.234375 25.265625 -20.800781 24.765625 -20.25 C 24.273438 -19.707031 24.03125 -18.953125 24.03125 -17.984375 L 24.03125 -4.296875 C 24.03125 -3.828125 24.097656 -3.359375 24.234375 -2.890625 C 24.378906 -2.429688 24.6875 -2.019531 25.15625 -1.65625 C 25.632812 -1.289062 26.375 -0.976562 27.375 -0.71875 L 27.375 0 L 24.890625 0 C 23.378906 0 22.335938 -0.410156 21.765625 -1.234375 C 21.492188 -0.828125 21.082031 -0.519531 20.53125 -0.3125 C 19.988281 -0.101562 19.359375 0 18.640625 0 L 16.09375 0 L 16.09375 -0.71875 C 17.457031 -1.082031 18.359375 -1.539062 18.796875 -2.09375 C 19.242188 -2.65625 19.46875 -3.390625 19.46875 -4.296875 L 19.46875 -10.5 L 8.609375 -10.5 L 8.609375 -4.296875 C 8.609375 -3.328125 8.851562 -2.566406 9.34375 -2.015625 C 9.84375 -1.472656 10.734375 -1.039062 12.015625 -0.71875 L 12.015625 0 L 9.4375 0 C 7.914062 0 6.875 -0.410156 6.3125 -1.234375 C 5.738281 -0.410156 4.695312 0 3.1875 0 L 0.65625 0 L 0.65625 -0.71875 C 2.03125 -1.039062 2.9375 -1.492188 3.375 -2.078125 C 3.8125 -2.671875 4.03125 -3.410156 4.03125 -4.296875 L 4.03125 -17.984375 C 4.03125 -18.910156 3.800781 -19.65625 3.34375 -20.21875 C 2.882812 -20.789062 2 -21.234375 0.6875 -21.546875 L 0.6875 -22.265625 L 3.1875 -22.265625 C 4.695312 -22.265625 5.738281 -21.859375 6.3125 -21.046875 C 6.582031 -21.441406 6.988281 -21.742188 7.53125 -21.953125 C 8.082031 -22.160156 8.71875 -22.265625 9.4375 -22.265625 L 12.046875 -22.265625 L 12.046875 -21.546875 C 10.703125 -21.234375 9.789062 -20.789062 9.3125 -20.21875 C 8.84375 -19.65625 8.609375 -18.910156 8.609375 -17.984375 L 8.609375 -12.328125 L 19.46875 -12.328125 L 19.46875 -17.984375 C 19.46875 -18.929688 19.226562 -19.679688 18.75 -20.234375 C 18.28125 -20.796875 17.375 -21.234375 16.03125 -21.546875 L 16.03125 -22.265625 L 18.640625 -22.265625 C 19.359375 -22.265625 19.988281 -22.160156 20.53125 -21.953125 C 21.082031 -21.742188 21.492188 -21.441406 21.765625 -21.046875 C 22.335938 -21.859375 23.378906 -22.265625 24.890625 -22.265625 Z M 27.375 -22.265625 "/></g></g></g><g fill="#000000" fill-opacity="1"><g transform="translate(112.923981, 338.439042)"><g><path d="M 0.59375 0 L 0.25 0 L 0.25 -0.78125 C 1.175781 -1.144531 1.863281 -1.644531 2.3125 -2.28125 C 2.769531 -2.925781 3.1875 -3.722656 3.5625 -4.671875 L 8.578125 -17.578125 C 9.003906 -18.628906 9.039062 -19.507812 8.6875 -20.21875 C 8.34375 -20.9375 7.707031 -21.359375 6.78125 -21.484375 L 6.78125 -22.265625 L 7.890625 -22.265625 C 8.492188 -22.265625 9.039062 -22.160156 9.53125 -21.953125 C 10.03125 -21.742188 10.414062 -21.441406 10.6875 -21.046875 C 10.988281 -21.460938 11.4375 -21.769531 12.03125 -21.96875 C 12.632812 -22.164062 13.515625 -22.265625 14.671875 -22.265625 C 14.585938 -21.660156 14.640625 -21.0625 14.828125 -20.46875 C 15.015625 -19.882812 15.222656 -19.285156 15.453125 -18.671875 L 20.796875 -5.265625 C 21.253906 -4.109375 21.679688 -3.144531 22.078125 -2.375 C 22.484375 -1.613281 23.113281 -1.082031 23.96875 -0.78125 L 23.96875 0 L 22.234375 0 C 20.722656 0 19.6875 -0.410156 19.125 -1.234375 C 18.550781 -0.410156 17.507812 0 16 0 L 14.203125 0 L 14.203125 -0.78125 C 15.335938 -1.082031 16.050781 -1.507812 16.34375 -2.0625 C 16.632812 -2.625 16.601562 -3.367188 16.25 -4.296875 L 14.640625 -8.546875 L 6.84375 -8.546875 L 5.578125 -4.828125 C 5.179688 -3.609375 5.21875 -2.695312 5.6875 -2.09375 C 6.164062 -1.5 6.890625 -1.0625 7.859375 -0.78125 L 7.859375 0 L 6.84375 0 C 5.332031 0 4.289062 -0.410156 3.71875 -1.234375 C 3.15625 -0.410156 2.113281 0 0.59375 0 Z M 10.75 -18.546875 L 7.546875 -10.34375 L 13.9375 -10.34375 Z M 10.75 -18.546875 "/></g></g></g><g fill="#000000" fill-opacity="1"><g transform="translate(154.534699, 338.439042)"><g><path d="M 21.640625 0.65625 L 20.859375 0.65625 C 20.703125 0.238281 20.488281 -0.0234375 20.21875 -0.140625 C 19.945312 -0.253906 19.535156 -0.238281 18.984375 -0.09375 C 18.484375 0.0078125 17.890625 0.125 17.203125 0.25 C 16.523438 0.375 15.660156 0.4375 14.609375 0.4375 C 11.953125 0.4375 9.632812 0.0234375 7.65625 -0.796875 C 5.6875 -1.628906 4.160156 -2.894531 3.078125 -4.59375 C 1.992188 -6.300781 1.453125 -8.484375 1.453125 -11.140625 C 1.453125 -13.578125 1.992188 -15.65625 3.078125 -17.375 C 4.160156 -19.101562 5.6875 -20.425781 7.65625 -21.34375 C 9.632812 -22.257812 11.953125 -22.71875 14.609375 -22.71875 C 15.660156 -22.71875 16.523438 -22.648438 17.203125 -22.515625 C 17.890625 -22.390625 18.484375 -22.273438 18.984375 -22.171875 C 19.535156 -22.046875 19.945312 -22.035156 20.21875 -22.140625 C 20.488281 -22.242188 20.703125 -22.53125 20.859375 -23 L 21.640625 -23 L 21.640625 -22.296875 C 21.640625 -21.035156 21.226562 -20.375 20.40625 -20.3125 C 20.894531 -19.894531 21.222656 -19.410156 21.390625 -18.859375 C 21.554688 -18.316406 21.640625 -17.613281 21.640625 -16.75 L 21.640625 -15.421875 L 20.859375 -15.421875 C 20.015625 -17.316406 18.988281 -18.753906 17.78125 -19.734375 C 16.570312 -20.710938 15.132812 -21.203125 13.46875 -21.203125 C 12.226562 -21.203125 11.164062 -20.894531 10.28125 -20.28125 C 9.394531 -19.675781 8.671875 -18.878906 8.109375 -17.890625 C 7.554688 -16.898438 7.15625 -15.816406 6.90625 -14.640625 C 6.65625 -13.460938 6.53125 -12.296875 6.53125 -11.140625 C 6.53125 -9.984375 6.65625 -8.816406 6.90625 -7.640625 C 7.15625 -6.460938 7.554688 -5.378906 8.109375 -4.390625 C 8.671875 -3.398438 9.394531 -2.597656 10.28125 -1.984375 C 11.164062 -1.378906 12.226562 -1.078125 13.46875 -1.078125 C 15.132812 -1.078125 16.570312 -1.566406 17.78125 -2.546875 C 18.988281 -3.535156 20.015625 -4.96875 20.859375 -6.84375 L 21.640625 -6.84375 L 21.640625 -5.578125 C 21.640625 -4.609375 21.539062 -3.863281 21.34375 -3.34375 C 21.144531 -2.820312 20.832031 -2.378906 20.40625 -2.015625 C 21.226562 -1.890625 21.640625 -1.207031 21.640625 0.03125 Z M 21.640625 0.65625 "/></g></g></g><g fill="#000000" fill-opacity="1"><g transform="translate(195.199262, 338.439042)"><g><path d="M 12.5 -12.9375 L 22.359375 -3.5 C 23.035156 -2.875 23.703125 -2.351562 24.359375 -1.9375 C 25.023438 -1.53125 25.632812 -1.144531 26.1875 -0.78125 L 26.1875 0 L 24.546875 0 C 23.515625 0 22.679688 -0.101562 22.046875 -0.3125 C 21.421875 -0.519531 20.894531 -0.828125 20.46875 -1.234375 C 20.238281 -0.410156 19.304688 0 17.671875 0 L 15.875 0 L 15.875 -0.78125 C 16.8125 -1.039062 17.332031 -1.347656 17.4375 -1.703125 C 17.550781 -2.054688 17.375 -2.492188 16.90625 -3.015625 C 16.445312 -3.546875 15.816406 -4.179688 15.015625 -4.921875 L 8.578125 -11.265625 L 8.578125 -4.296875 C 8.578125 -3.390625 8.800781 -2.664062 9.25 -2.125 C 9.707031 -1.59375 10.585938 -1.144531 11.890625 -0.78125 L 11.890625 0 L 9.46875 0 C 7.945312 0 6.90625 -0.410156 6.34375 -1.234375 C 5.769531 -0.410156 4.726562 0 3.21875 0 L 0.71875 0 L 0.71875 -0.78125 C 1.664062 -1.019531 2.367188 -1.304688 2.828125 -1.640625 C 3.296875 -1.972656 3.609375 -2.363281 3.765625 -2.8125 C 3.921875 -3.269531 4 -3.765625 4 -4.296875 L 4 -17.671875 C 4 -18.703125 3.796875 -19.515625 3.390625 -20.109375 C 2.984375 -20.710938 2.09375 -21.171875 0.71875 -21.484375 L 0.71875 -22.265625 L 3.21875 -22.265625 C 4.726562 -22.265625 5.769531 -21.859375 6.34375 -21.046875 C 6.90625 -21.859375 7.945312 -22.265625 9.46875 -22.265625 L 11.921875 -22.265625 L 11.921875 -21.484375 C 10.617188 -21.171875 9.734375 -20.738281 9.265625 -20.1875 C 8.804688 -19.644531 8.578125 -18.910156 8.578125 -17.984375 L 8.578125 -11.921875 C 9.503906 -12.472656 10.46875 -13.117188 11.46875 -13.859375 C 12.46875 -14.609375 13.394531 -15.367188 14.25 -16.140625 C 15.113281 -16.921875 15.8125 -17.628906 16.34375 -18.265625 C 16.882812 -18.898438 17.15625 -19.375 17.15625 -19.6875 C 17.15625 -20.207031 16.9375 -20.597656 16.5 -20.859375 C 16.0625 -21.128906 15.472656 -21.335938 14.734375 -21.484375 L 14.734375 -22.265625 L 16.0625 -22.265625 C 16.832031 -22.265625 17.460938 -22.160156 17.953125 -21.953125 C 18.453125 -21.742188 18.753906 -21.441406 18.859375 -21.046875 C 19.285156 -21.441406 19.8125 -21.742188 20.4375 -21.953125 C 21.070312 -22.160156 21.90625 -22.265625 22.9375 -22.265625 L 24.734375 -22.265625 L 24.734375 -21.484375 C 23.085938 -20.847656 21.578125 -20.066406 20.203125 -19.140625 C 18.828125 -18.222656 17.519531 -17.234375 16.28125 -16.171875 C 15.039062 -15.109375 13.78125 -14.03125 12.5 -12.9375 Z M 12.5 -12.9375 "/></g></g></g><g fill="#000000" fill-opacity="1"><g transform="translate(239.112293, 338.439042)"><g><path d="M 26.28125 -22.265625 L 27.1875 -22.265625 L 27.1875 -21.484375 C 25.84375 -21.210938 24.960938 -20.800781 24.546875 -20.25 C 24.140625 -19.707031 23.9375 -19.035156 23.9375 -18.234375 L 23.9375 -5.9375 C 23.9375 -5.050781 23.960938 -4.132812 24.015625 -3.1875 C 24.078125 -2.238281 24.265625 -1.3125 24.578125 -0.40625 L 24.578125 0.375 L 23.03125 0.375 L 6.375 -16.9375 L 6.375 -4.640625 C 6.375 -3.921875 6.476562 -3.3125 6.6875 -2.8125 C 6.894531 -2.320312 7.285156 -1.914062 7.859375 -1.59375 C 8.441406 -1.269531 9.289062 -1 10.40625 -0.78125 L 10.40625 0 L 8.671875 0 C 7.160156 0 6.117188 -0.410156 5.546875 -1.234375 C 4.984375 -0.410156 3.941406 0 2.421875 0 L 0.890625 0 L 0.890625 -0.78125 C 2.023438 -1 2.863281 -1.28125 3.40625 -1.625 C 3.957031 -1.96875 4.316406 -2.394531 4.484375 -2.90625 C 4.648438 -3.425781 4.734375 -4.035156 4.734375 -4.734375 L 4.734375 -18.640625 C 4.265625 -19.210938 3.835938 -19.671875 3.453125 -20.015625 C 3.066406 -20.359375 2.648438 -20.644531 2.203125 -20.875 C 1.765625 -21.113281 1.195312 -21.316406 0.5 -21.484375 L 0.5 -22.265625 L 1.671875 -22.265625 C 2.953125 -22.265625 3.972656 -21.859375 4.734375 -21.046875 C 4.859375 -21.859375 5.488281 -22.265625 6.625 -22.265625 L 8.609375 -22.265625 C 8.710938 -21.492188 9.03125 -20.742188 9.5625 -20.015625 C 10.101562 -19.285156 10.847656 -18.429688 11.796875 -17.453125 L 22.296875 -6.65625 L 22.296875 -17.765625 C 22.296875 -18.816406 22.015625 -19.628906 21.453125 -20.203125 C 20.898438 -20.785156 19.921875 -21.210938 18.515625 -21.484375 L 18.515625 -22.265625 L 20.03125 -22.265625 C 21.539062 -22.265625 22.582031 -21.859375 23.15625 -21.046875 C 23.71875 -21.859375 24.757812 -22.265625 26.28125 -22.265625 Z M 26.28125 -22.265625 "/></g></g></g><g fill="#000000" fill-opacity="1"><g transform="translate(284.19226, 338.439042)"><g><path d="M 21.640625 0.65625 L 20.859375 0.65625 C 20.703125 0.238281 20.488281 -0.0234375 20.21875 -0.140625 C 19.945312 -0.253906 19.535156 -0.238281 18.984375 -0.09375 C 18.484375 0.0078125 17.890625 0.125 17.203125 0.25 C 16.523438 0.375 15.660156 0.4375 14.609375 0.4375 C 11.953125 0.4375 9.632812 0.0234375 7.65625 -0.796875 C 5.6875 -1.628906 4.160156 -2.894531 3.078125 -4.59375 C 1.992188 -6.300781 1.453125 -8.484375 1.453125 -11.140625 C 1.453125 -13.578125 1.992188 -15.65625 3.078125 -17.375 C 4.160156 -19.101562 5.6875 -20.425781 7.65625 -21.34375 C 9.632812 -22.257812 11.953125 -22.71875 14.609375 -22.71875 C 15.660156 -22.71875 16.523438 -22.648438 17.203125 -22.515625 C 17.890625 -22.390625 18.484375 -22.273438 18.984375 -22.171875 C 19.535156 -22.046875 19.945312 -22.035156 20.21875 -22.140625 C 20.488281 -22.242188 20.703125 -22.53125 20.859375 -23 L 21.640625 -23 L 21.640625 -22.296875 C 21.640625 -21.035156 21.226562 -20.375 20.40625 -20.3125 C 20.894531 -19.894531 21.222656 -19.410156 21.390625 -18.859375 C 21.554688 -18.316406 21.640625 -17.613281 21.640625 -16.75 L 21.640625 -15.421875 L 20.859375 -15.421875 C 20.015625 -17.316406 18.988281 -18.753906 17.78125 -19.734375 C 16.570312 -20.710938 15.132812 -21.203125 13.46875 -21.203125 C 12.226562 -21.203125 11.164062 -20.894531 10.28125 -20.28125 C 9.394531 -19.675781 8.671875 -18.878906 8.109375 -17.890625 C 7.554688 -16.898438 7.15625 -15.816406 6.90625 -14.640625 C 6.65625 -13.460938 6.53125 -12.296875 6.53125 -11.140625 C 6.53125 -9.984375 6.65625 -8.816406 6.90625 -7.640625 C 7.15625 -6.460938 7.554688 -5.378906 8.109375 -4.390625 C 8.671875 -3.398438 9.394531 -2.597656 10.28125 -1.984375 C 11.164062 -1.378906 12.226562 -1.078125 13.46875 -1.078125 C 15.132812 -1.078125 16.570312 -1.566406 17.78125 -2.546875 C 18.988281 -3.535156 20.015625 -4.96875 20.859375 -6.84375 L 21.640625 -6.84375 L 21.640625 -5.578125 C 21.640625 -4.609375 21.539062 -3.863281 21.34375 -3.34375 C 21.144531 -2.820312 20.832031 -2.378906 20.40625 -2.015625 C 21.226562 -1.890625 21.640625 -1.207031 21.640625 0.03125 Z M 21.640625 0.65625 "/></g></g></g><g fill="#1e1e2e" fill-opacity="1"><g transform="translate(315.957884, 259.620698)"><g><path d="M 5.671875 -2.296875 L 11.8125 -2.296875 L 11.8125 0 L 1.234375 0 L 1.234375 -1.359375 L 6.125 -6.140625 C 7.144531 -7.148438 7.851562 -7.957031 8.25 -8.5625 C 8.65625 -9.164062 8.859375 -9.800781 8.859375 -10.46875 C 8.859375 -11.132812 8.675781 -11.664062 8.3125 -12.0625 C 7.945312 -12.457031 7.429688 -12.65625 6.765625 -12.65625 C 6.054688 -12.65625 5.515625 -12.429688 5.140625 -11.984375 C 4.765625 -11.546875 4.53125 -10.890625 4.4375 -10.015625 L 4.421875 -9.796875 L 1.53125 -9.796875 L 1.5625 -10.015625 C 1.707031 -11.566406 2.25 -12.753906 3.1875 -13.578125 C 4.132812 -14.410156 5.421875 -14.828125 7.046875 -14.828125 C 8.597656 -14.828125 9.796875 -14.445312 10.640625 -13.6875 C 11.492188 -12.9375 11.921875 -11.921875 11.921875 -10.640625 C 11.921875 -9.742188 11.664062 -8.898438 11.15625 -8.109375 C 10.65625 -7.316406 9.726562 -6.253906 8.375 -4.921875 Z M 5.671875 -2.296875 "/></g></g></g><g fill="#1e1e2e" fill-opacity="1"><g transform="translate(329.094632, 259.620698)"><g><path d="M 6.578125 -14.8125 C 10.335938 -14.8125 12.21875 -12.289062 12.21875 -7.25 C 12.21875 -2.21875 10.335938 0.296875 6.578125 0.296875 C 2.804688 0.296875 0.921875 -2.21875 0.921875 -7.25 C 0.921875 -12.289062 2.804688 -14.8125 6.578125 -14.8125 Z M 4.625 -3.1875 C 5.039062 -2.3125 5.691406 -1.875 6.578125 -1.875 C 7.460938 -1.875 8.113281 -2.3125 8.53125 -3.1875 C 8.945312 -4.0625 9.15625 -5.414062 9.15625 -7.25 C 9.15625 -9.101562 8.945312 -10.460938 8.53125 -11.328125 C 8.113281 -12.203125 7.460938 -12.640625 6.578125 -12.640625 C 5.679688 -12.640625 5.023438 -12.203125 4.609375 -11.328125 C 4.203125 -10.460938 4 -9.101562 4 -7.25 C 4 -5.414062 4.207031 -4.0625 4.625 -3.1875 Z M 4.625 -3.1875 "/></g></g></g><g fill="#1e1e2e" fill-opacity="1"><g transform="translate(342.23138, 259.620698)"><g><path d="M 5.671875 -2.296875 L 11.8125 -2.296875 L 11.8125 0 L 1.234375 0 L 1.234375 -1.359375 L 6.125 -6.140625 C 7.144531 -7.148438 7.851562 -7.957031 8.25 -8.5625 C 8.65625 -9.164062 8.859375 -9.800781 8.859375 -10.46875 C 8.859375 -11.132812 8.675781 -11.664062 8.3125 -12.0625 C 7.945312 -12.457031 7.429688 -12.65625 6.765625 -12.65625 C 6.054688 -12.65625 5.515625 -12.429688 5.140625 -11.984375 C 4.765625 -11.546875 4.53125 -10.890625 4.4375 -10.015625 L 4.421875 -9.796875 L 1.53125 -9.796875 L 1.5625 -10.015625 C 1.707031 -11.566406 2.25 -12.753906 3.1875 -13.578125 C 4.132812 -14.410156 5.421875 -14.828125 7.046875 -14.828125 C 8.597656 -14.828125 9.796875 -14.445312 10.640625 -13.6875 C 11.492188 -12.9375 11.921875 -11.921875 11.921875 -10.640625 C 11.921875 -9.742188 11.664062 -8.898438 11.15625 -8.109375 C 10.65625 -7.316406 9.726562 -6.253906 8.375 -4.921875 Z M 5.671875 -2.296875 "/></g></g></g><g fill="#1e1e2e" fill-opacity="1"><g transform="translate(355.368129, 259.620698)"><g><path d="M 12.421875 -3.421875 L 10.640625 -3.421875 L 10.640625 0 L 7.734375 0 L 7.734375 -3.421875 L 0.75 -3.421875 L 0.75 -4.984375 L 7.546875 -14.515625 L 10.640625 -14.515625 L 10.640625 -5.71875 L 12.421875 -5.71875 Z M 7.734375 -5.71875 L 7.734375 -11.234375 C 7.410156 -10.671875 7.085938 -10.160156 6.765625 -9.703125 L 3.9375 -5.71875 Z M 7.734375 -5.71875 "/></g></g></g><g fill="#1e1e2e" fill-opacity="1"><g transform="translate(11.243245, 259.620698)"><g><path d="M 12.34375 -2.296875 L 12.34375 0 L 1.875 0 L 1.875 -14.515625 L 12.140625 -14.515625 L 12.140625 -12.234375 L 4.78125 -12.234375 L 4.78125 -8.40625 L 11.609375 -8.40625 L 11.609375 -6.125 L 4.78125 -6.125 L 4.78125 -2.296875 Z M 12.34375 -2.296875 "/></g></g></g><g fill="#1e1e2e" fill-opacity="1"><g transform="translate(24.190823, 259.620698)"><g><path d="M 6.6875 -14.8125 C 8.34375 -14.8125 9.609375 -14.394531 10.484375 -13.5625 C 11.359375 -12.738281 11.878906 -11.628906 12.046875 -10.234375 L 9.078125 -10.234375 C 8.992188 -10.992188 8.742188 -11.582031 8.328125 -12 C 7.910156 -12.425781 7.328125 -12.640625 6.578125 -12.640625 C 5.972656 -12.640625 5.484375 -12.488281 5.109375 -12.1875 C 4.734375 -11.894531 4.546875 -11.472656 4.546875 -10.921875 C 4.546875 -10.296875 4.769531 -9.804688 5.21875 -9.453125 C 5.675781 -9.109375 6.484375 -8.800781 7.640625 -8.53125 C 9.222656 -8.164062 10.390625 -7.613281 11.140625 -6.875 C 11.890625 -6.132812 12.265625 -5.175781 12.265625 -4 C 12.265625 -2.675781 11.742188 -1.628906 10.703125 -0.859375 C 9.671875 -0.0859375 8.398438 0.296875 6.890625 0.296875 C 5.128906 0.296875 3.722656 -0.09375 2.671875 -0.875 C 1.617188 -1.65625 1.023438 -2.796875 0.890625 -4.296875 L 3.84375 -4.296875 C 4 -3.523438 4.347656 -2.925781 4.890625 -2.5 C 5.441406 -2.082031 6.097656 -1.875 6.859375 -1.875 C 7.523438 -1.875 8.085938 -2.039062 8.546875 -2.375 C 9.003906 -2.707031 9.234375 -3.148438 9.234375 -3.703125 C 9.234375 -4.316406 9.007812 -4.8125 8.5625 -5.1875 C 8.125 -5.570312 7.378906 -5.890625 6.328125 -6.140625 C 4.703125 -6.535156 3.488281 -7.054688 2.6875 -7.703125 C 1.894531 -8.359375 1.5 -9.3125 1.5 -10.5625 C 1.5 -11.851562 2 -12.882812 3 -13.65625 C 4.007812 -14.425781 5.238281 -14.8125 6.6875 -14.8125 Z M 6.6875 -14.8125 "/></g></g></g><g fill="#1e1e2e" fill-opacity="1"><g transform="translate(36.970257, 259.620698)"><g><path d="M 13.234375 -12.234375 L 8.3125 -12.234375 L 8.3125 0 L 5.40625 0 L 5.40625 -12.234375 L 0.484375 -12.234375 L 0.484375 -14.515625 L 13.234375 -14.515625 Z M 13.234375 -12.234375 "/></g></g></g><g fill="#1e1e2e" fill-opacity="1"><g transform="translate(50.06497, 259.620698)"><g><path d="M 8.734375 -14.421875 C 10.523438 -14.210938 11.96875 -13.523438 13.0625 -12.359375 C 14.15625 -11.203125 14.703125 -9.5625 14.703125 -7.4375 C 14.703125 -5.3125 14.140625 -3.609375 13.015625 -2.328125 C 11.890625 -1.046875 10.445312 -0.296875 8.6875 -0.078125 C 8.195312 -0.0234375 7.578125 0 6.828125 0 L 1.875 0 L 1.875 -14.515625 L 6.875 -14.515625 C 7.613281 -14.515625 8.234375 -14.484375 8.734375 -14.421875 Z M 8.03125 -2.359375 C 9.144531 -2.492188 10.019531 -3.003906 10.65625 -3.890625 C 11.300781 -4.773438 11.625 -5.945312 11.625 -7.40625 C 11.625 -8.800781 11.304688 -9.90625 10.671875 -10.71875 C 10.046875 -11.539062 9.1875 -12.019531 8.09375 -12.15625 C 7.65625 -12.207031 7.140625 -12.234375 6.546875 -12.234375 L 4.78125 -12.234375 L 4.78125 -2.296875 L 6.5 -2.296875 C 7.21875 -2.296875 7.726562 -2.316406 8.03125 -2.359375 Z M 8.03125 -2.359375 "/></g></g></g><g clip-path="url(#2b6a4d7e2f)"><path fill="#1e1e2e" d="M 130.832031 264.085938 L 247.464844 264.085938 C 248.417969 264.085938 249.132812 263.371094 249.132812 262.417969 L 249.132812 247.660156 C 249.132812 246.710938 248.417969 245.996094 247.464844 245.996094 L 234.257812 245.996094 L 234.257812 182.320312 L 241.039062 182.320312 C 241.992188 182.320312 242.707031 181.609375 242.707031 180.65625 L 242.707031 173.039062 L 246.15625 173.039062 C 246.871094 173.039062 247.585938 172.5625 247.824219 171.847656 C 248.0625 171.132812 247.824219 170.300781 247.109375 169.945312 L 190.695312 130.191406 C 190.101562 129.714844 189.269531 129.714844 188.671875 130.191406 L 131.070312 169.945312 C 130.472656 170.421875 130.117188 171.132812 130.355469 171.847656 C 130.59375 172.5625 131.308594 173.039062 132.019531 173.039062 L 135.472656 173.039062 L 135.472656 180.65625 C 135.472656 181.609375 136.1875 182.320312 137.140625 182.320312 L 143.921875 182.320312 L 143.921875 245.996094 L 130.832031 245.996094 C 129.878906 245.996094 129.164062 246.710938 129.164062 247.660156 L 129.164062 262.417969 C 129.164062 263.371094 129.878906 264.085938 130.832031 264.085938 Z M 239.96875 179.464844 L 234.257812 179.464844 L 234.257812 173.039062 L 239.96875 173.039062 Z M 135.589844 170.300781 L 189.625 132.929688 L 242.824219 170.300781 Z M 217.59375 238.019531 L 217.59375 182.320312 L 231.398438 182.320312 L 231.398438 238.019531 Z M 231.398438 240.878906 L 231.398438 245.996094 L 217.59375 245.996094 L 217.59375 240.878906 Z M 217.59375 179.464844 L 217.59375 173.039062 L 231.398438 173.039062 L 231.398438 179.464844 Z M 204.144531 208.148438 L 174.152344 208.148438 C 173.199219 208.148438 172.488281 208.863281 172.488281 209.8125 L 172.488281 245.996094 L 163.441406 245.996094 L 163.441406 173.039062 L 214.855469 173.039062 L 214.855469 245.996094 L 205.8125 245.996094 L 205.8125 209.8125 C 205.8125 208.863281 205.097656 208.148438 204.144531 208.148438 Z M 202.953125 211.003906 L 202.953125 245.996094 L 190.578125 245.996094 L 190.578125 211.003906 Z M 187.71875 211.003906 L 187.71875 245.996094 L 175.34375 245.996094 L 175.34375 211.003906 Z M 146.898438 238.019531 L 146.898438 182.320312 L 160.703125 182.320312 L 160.703125 238.019531 Z M 160.703125 240.878906 L 160.703125 245.996094 L 146.898438 245.996094 L 146.898438 240.878906 Z M 146.898438 179.464844 L 146.898438 173.039062 L 160.703125 173.039062 L 160.703125 179.464844 Z M 138.449219 179.464844 L 138.449219 173.039062 L 144.160156 173.039062 L 144.160156 179.464844 Z M 132.019531 248.851562 L 246.394531 248.851562 L 246.394531 261.230469 L 132.019531 261.230469 Z M 132.019531 248.851562 " fill-opacity="1" fill-rule="nonzero"/></g><path fill="#1e1e2e" d="M 189.148438 142.925781 C 184.507812 142.925781 180.699219 146.734375 180.699219 151.378906 C 180.699219 156.019531 184.507812 159.828125 189.148438 159.828125 C 193.789062 159.828125 197.597656 156.019531 197.597656 151.378906 C 197.597656 146.734375 193.789062 142.925781 189.148438 142.925781 Z M 189.148438 157.089844 C 186.054688 157.089844 183.554688 154.589844 183.554688 151.496094 C 183.554688 148.402344 186.054688 145.902344 189.148438 145.902344 C 192.242188 145.902344 194.742188 148.402344 194.742188 151.496094 C 194.863281 154.589844 192.242188 157.089844 189.148438 157.089844 Z M 189.148438 157.089844 " fill-opacity="1" fill-rule="nonzero"/><path fill="#1e1e2e" d="M 212.117188 254.445312 L 166.296875 254.445312 C 165.464844 254.445312 164.871094 255.039062 164.871094 255.875 C 164.871094 256.707031 165.464844 257.300781 166.296875 257.300781 L 212.117188 257.300781 C 212.953125 257.300781 213.546875 256.707031 213.546875 255.875 C 213.429688 255.039062 212.832031 254.445312 212.117188 254.445312 Z M 212.117188 254.445312 " fill-opacity="1" fill-rule="nonzero"/></svg>