<svg xmlns="http://www.w3.org/2000/svg" xmlns:xlink="http://www.w3.org/1999/xlink" width="500" zoomAndPan="magnify" viewBox="0 0 375 374.999991" height="500" preserveAspectRatio="xMidYMid meet" version="1.0"><defs><g/><clipPath id="89a6855a07"><path d="M 129.15625 129.835938 L 249.15625 129.835938 L 249.15625 264.085938 L 129.15625 264.085938 Z M 129.15625 129.835938 " clip-rule="nonzero"/></clipPath></defs><g fill="#000000" fill-opacity="1"><g transform="translate(62.79224, 132.550349)"><g><path d="M 2.46875 -3.28125 L 0.5625 -0.734375 L -0.25 -1.34375 C 0.257812 -2.539062 0.507812 -3.515625 0.5 -4.265625 C 0.488281 -5.015625 0.3125 -5.628906 -0.03125 -6.109375 C -0.375 -6.597656 -0.789062 -7.023438 -1.28125 -7.390625 L -15.25 -17.9375 C -15.851562 -18.382812 -16.441406 -18.6875 -17.015625 -18.84375 C -17.585938 -19 -18.222656 -18.960938 -18.921875 -18.734375 C -19.617188 -18.503906 -20.441406 -18.007812 -21.390625 -17.25 L -22.1875 -17.859375 L -20.25 -20.421875 C -19.082031 -21.960938 -17.859375 -22.707031 -16.578125 -22.65625 C -16.679688 -23.46875 -16.472656 -24.414062 -15.953125 -25.5 C -15.441406 -26.582031 -14.554688 -27.957031 -13.296875 -29.625 C -11.921875 -31.445312 -10.488281 -32.796875 -9 -33.671875 C -7.507812 -34.554688 -6.046875 -34.992188 -4.609375 -34.984375 C -3.171875 -34.972656 -1.851562 -34.515625 -0.65625 -33.609375 C 0.519531 -32.722656 1.332031 -31.554688 1.78125 -30.109375 C 2.226562 -28.660156 2.253906 -27.082031 1.859375 -25.375 C 1.460938 -23.675781 0.617188 -21.96875 -0.671875 -20.25 L -3.59375 -16.390625 L 2.203125 -12.015625 C 3.191406 -11.273438 4.148438 -10.957031 5.078125 -11.0625 C 6.003906 -11.175781 7.125 -11.78125 8.4375 -12.875 L 9.25 -12.265625 L 7.28125 -9.65625 C 6.113281 -8.101562 4.894531 -7.359375 3.625 -7.421875 C 4.019531 -6.203125 3.632812 -4.820312 2.46875 -3.28125 Z M -11.671875 -22.484375 L -5.03125 -17.484375 L -3.53125 -19.484375 C -2.3125 -21.097656 -1.710938 -22.65625 -1.734375 -24.15625 C -1.765625 -25.65625 -2.644531 -27.054688 -4.375 -28.359375 C -5.957031 -29.554688 -7.421875 -30.113281 -8.765625 -30.03125 C -10.117188 -29.957031 -11.300781 -29.253906 -12.3125 -27.921875 C -12.96875 -27.035156 -13.347656 -26.269531 -13.453125 -25.625 C -13.554688 -24.976562 -13.441406 -24.410156 -13.109375 -23.921875 C -12.773438 -23.429688 -12.296875 -22.953125 -11.671875 -22.484375 Z M -11.671875 -22.484375 "/></g></g></g><g fill="#000000" fill-opacity="1"><g transform="translate(81.484202, 107.969642)"><g><path d="M 3.125 -2.625 L 0.703125 -0.59375 L 0.046875 -1.375 C 1.054688 -2.8125 1.523438 -3.976562 1.453125 -4.875 C 1.390625 -5.769531 0.960938 -6.6875 0.171875 -7.625 L -10.9375 -20.84375 C -11.414062 -21.414062 -11.910156 -21.851562 -12.421875 -22.15625 C -12.941406 -22.457031 -13.5625 -22.566406 -14.28125 -22.484375 C -15 -22.410156 -15.898438 -22.113281 -16.984375 -21.59375 L -17.625 -22.359375 L -15.1875 -24.40625 C -13.71875 -25.644531 -12.367188 -26.097656 -11.140625 -25.765625 C -11.046875 -26.515625 -10.628906 -27.375 -9.890625 -28.34375 C -9.148438 -29.3125 -8.003906 -30.445312 -6.453125 -31.75 C -3.765625 -34.007812 -1.28125 -35.300781 1 -35.625 C 3.289062 -35.957031 5.234375 -35.175781 6.828125 -33.28125 C 7.703125 -32.226562 8.171875 -31.035156 8.234375 -29.703125 C 8.304688 -28.378906 7.992188 -26.992188 7.296875 -25.546875 C 6.597656 -24.109375 5.554688 -22.71875 4.171875 -21.375 L 4.25 -21.28125 C 5.582031 -21.976562 6.867188 -22.347656 8.109375 -22.390625 C 9.359375 -22.429688 10.59375 -22.304688 11.8125 -22.015625 C 13.039062 -21.734375 14.28125 -21.429688 15.53125 -21.109375 C 16.789062 -20.785156 18.085938 -20.582031 19.421875 -20.5 C 20.753906 -20.425781 22.132812 -20.640625 23.5625 -21.140625 L 24.21875 -20.359375 L 23.109375 -19.421875 C 22.410156 -18.835938 21.609375 -18.34375 20.703125 -17.9375 C 19.804688 -17.539062 18.929688 -17.316406 18.078125 -17.265625 C 18.460938 -16.816406 18.546875 -16.351562 18.328125 -15.875 C 18.117188 -15.394531 17.6875 -14.875 17.03125 -14.3125 L 16.234375 -13.640625 C 15.835938 -14.109375 15.132812 -14.613281 14.125 -15.15625 C 13.125 -15.707031 11.96875 -16.222656 10.65625 -16.703125 C 9.34375 -17.179688 8.007812 -17.554688 6.65625 -17.828125 C 5.300781 -18.109375 4.050781 -18.21875 2.90625 -18.15625 C 1.757812 -18.09375 0.859375 -17.785156 0.203125 -17.234375 L -0.015625 -17.0625 L 4.703125 -11.4375 C 5.222656 -10.820312 5.753906 -10.351562 6.296875 -10.03125 C 6.847656 -9.71875 7.488281 -9.597656 8.21875 -9.671875 C 8.945312 -9.742188 9.867188 -10.039062 10.984375 -10.5625 L 11.640625 -9.78125 L 9.21875 -7.75 C 7.75 -6.507812 6.394531 -6.054688 5.15625 -6.390625 C 5.269531 -5.117188 4.59375 -3.863281 3.125 -2.625 Z M -6.3125 -24.5625 L -1.21875 -18.484375 L 0.65625 -20.0625 C 2.257812 -21.40625 3.226562 -22.820312 3.5625 -24.3125 C 3.90625 -25.800781 3.445312 -27.296875 2.1875 -28.796875 C 0.988281 -30.210938 -0.335938 -31.023438 -1.796875 -31.234375 C -3.265625 -31.453125 -4.707031 -30.96875 -6.125 -29.78125 C -7.257812 -28.832031 -7.773438 -27.960938 -7.671875 -27.171875 C -7.566406 -26.378906 -7.113281 -25.507812 -6.3125 -24.5625 Z M -6.3125 -24.5625 "/></g></g></g><g fill="#000000" fill-opacity="1"><g transform="translate(108.653147, 85.692561)"><g><path d="M 0.6875 -0.34375 L 0.296875 -0.140625 L -0.15625 -1.046875 C 0.695312 -1.984375 1.195312 -2.945312 1.34375 -3.9375 C 1.488281 -4.925781 1.507812 -6.070312 1.40625 -7.375 L -0.21875 -24.984375 C -0.332031 -26.421875 -0.789062 -27.453125 -1.59375 -28.078125 C -2.40625 -28.703125 -3.375 -28.820312 -4.5 -28.4375 L -4.9375 -29.328125 L -3.6875 -29.953125 C -2.988281 -30.296875 -2.296875 -30.492188 -1.609375 -30.546875 C -0.929688 -30.597656 -0.316406 -30.472656 0.234375 -30.171875 C 0.328125 -30.816406 0.660156 -31.421875 1.234375 -31.984375 C 1.804688 -32.546875 2.753906 -33.160156 4.078125 -33.828125 C 4.316406 -33.085938 4.710938 -32.429688 5.265625 -31.859375 C 5.828125 -31.296875 6.410156 -30.726562 7.015625 -30.15625 L 20.765625 -17.890625 C 21.953125 -16.835938 22.992188 -15.984375 23.890625 -15.328125 C 24.785156 -14.671875 25.8125 -14.425781 26.96875 -14.59375 L 27.421875 -13.6875 L 25.4375 -12.6875 C 23.695312 -11.820312 22.269531 -11.695312 21.15625 -12.3125 C 20.976562 -11.050781 20.019531 -9.988281 18.28125 -9.125 L 16.234375 -8.09375 L 15.78125 -9 C 16.90625 -9.976562 17.476562 -10.867188 17.5 -11.671875 C 17.53125 -12.484375 17.070312 -13.316406 16.125 -14.171875 L 11.859375 -18.109375 L 2.953125 -13.671875 L 3.640625 -8.703125 C 3.878906 -7.078125 4.4375 -6.054688 5.3125 -5.640625 C 6.195312 -5.234375 7.265625 -5.148438 8.515625 -5.390625 L 8.96875 -4.484375 L 7.828125 -3.90625 C 6.097656 -3.039062 4.671875 -2.914062 3.546875 -3.53125 C 3.367188 -2.269531 2.414062 -1.207031 0.6875 -0.34375 Z M 1.71875 -27.34375 L 2.71875 -16.140625 L 10.03125 -19.78125 Z M 1.71875 -27.34375 "/></g></g></g><g fill="#000000" fill-opacity="1"><g transform="translate(139.302075, 70.649075)"><g><path d="M 17.5625 -3.515625 C 14.363281 -2.796875 11.445312 -2.726562 8.8125 -3.3125 C 6.1875 -3.90625 3.988281 -5.097656 2.21875 -6.890625 C 0.445312 -8.679688 -0.753906 -10.988281 -1.390625 -13.8125 C -2.046875 -16.726562 -1.945312 -19.445312 -1.09375 -21.96875 C -0.238281 -24.488281 1.328125 -26.664062 3.609375 -28.5 C 5.898438 -30.332031 8.84375 -31.65625 12.4375 -32.46875 C 13.59375 -32.726562 14.660156 -32.898438 15.640625 -32.984375 C 16.628906 -33.066406 17.535156 -33.132812 18.359375 -33.1875 C 19.117188 -33.238281 19.679688 -33.351562 20.046875 -33.53125 C 20.421875 -33.707031 20.628906 -34.125 20.671875 -34.78125 L 21.703125 -35.015625 L 21.890625 -34.140625 C 22.234375 -32.617188 21.894531 -31.675781 20.875 -31.3125 C 21.507812 -30.96875 22.023438 -30.515625 22.421875 -29.953125 C 22.828125 -29.390625 23.140625 -28.613281 23.359375 -27.625 L 23.828125 -25.53125 L 22.796875 -25.296875 C 21.691406 -27.535156 20.226562 -29.085938 18.40625 -29.953125 C 16.59375 -30.828125 14.390625 -30.988281 11.796875 -30.4375 C 9.484375 -29.914062 7.738281 -28.96875 6.5625 -27.59375 C 5.382812 -26.226562 4.664062 -24.578125 4.40625 -22.640625 C 4.15625 -20.703125 4.28125 -18.625 4.78125 -16.40625 C 5.164062 -14.695312 5.71875 -13.097656 6.4375 -11.609375 C 7.15625 -10.117188 8.035156 -8.835938 9.078125 -7.765625 C 10.117188 -6.691406 11.316406 -5.921875 12.671875 -5.453125 C 14.035156 -4.992188 15.539062 -4.945312 17.1875 -5.3125 C 17.945312 -5.488281 18.738281 -5.757812 19.5625 -6.125 C 20.394531 -6.488281 21.171875 -6.972656 21.890625 -7.578125 L 21.03125 -11.359375 C 20.882812 -12.035156 20.628906 -12.648438 20.265625 -13.203125 C 19.898438 -13.753906 19.359375 -14.148438 18.640625 -14.390625 C 17.929688 -14.628906 16.960938 -14.609375 15.734375 -14.328125 L 15.546875 -15.1875 L 18.9375 -15.953125 C 19.84375 -16.160156 20.65625 -16.210938 21.375 -16.109375 C 22.101562 -16.015625 22.703125 -15.75 23.171875 -15.3125 C 23.648438 -16.476562 24.832031 -17.273438 26.71875 -17.703125 L 29.359375 -18.296875 L 29.546875 -17.4375 C 28.253906 -17.144531 27.394531 -16.535156 26.96875 -15.609375 C 26.550781 -14.691406 26.46875 -13.671875 26.71875 -12.546875 L 27.78125 -7.828125 C 26.007812 -6.671875 24.234375 -5.742188 22.453125 -5.046875 C 20.679688 -4.359375 19.050781 -3.847656 17.5625 -3.515625 Z M 17.5625 -3.515625 "/></g></g></g><g fill="#000000" fill-opacity="1"><g transform="translate(174.855566, 62.496808)"><g><path d="M 35.796875 -20.359375 L 37.03125 -4.09375 C 37.09375 -3.257812 37.207031 -2.515625 37.375 -1.859375 C 37.550781 -1.203125 37.898438 -0.625 38.421875 -0.125 C 38.941406 0.363281 39.742188 0.785156 40.828125 1.140625 L 40.78125 2.15625 L 38.015625 2.015625 C 36.078125 1.910156 34.769531 1.3125 34.09375 0.21875 C 33.726562 0.707031 33.210938 1.070312 32.546875 1.3125 C 31.890625 1.550781 31.050781 1.644531 30.03125 1.59375 L 27.140625 1.4375 L 27.1875 0.421875 C 28.4375 0.191406 29.351562 -0.132812 29.9375 -0.5625 C 30.53125 -0.988281 30.910156 -1.519531 31.078125 -2.15625 C 31.242188 -2.789062 31.28125 -3.535156 31.1875 -4.390625 L 30.15625 -19.921875 L 19.6875 1.046875 L 18.15625 0.953125 L 9.953125 -21.1875 L 6.765625 -5.359375 C 6.691406 -4.835938 6.703125 -4.265625 6.796875 -3.640625 C 6.898438 -3.015625 7.226562 -2.421875 7.78125 -1.859375 C 8.332031 -1.304688 9.203125 -0.84375 10.390625 -0.46875 L 10.34375 0.546875 L 9.171875 0.484375 C 7.234375 0.378906 5.9375 -0.210938 5.28125 -1.296875 C 4.5 -0.285156 3.140625 0.164062 1.203125 0.0625 L 0.484375 0.03125 L 0.53125 -0.984375 C 1.414062 -1.203125 2.125 -1.476562 2.65625 -1.8125 C 3.195312 -2.15625 3.632812 -2.632812 3.96875 -3.25 C 4.300781 -3.863281 4.570312 -4.710938 4.78125 -5.796875 L 8.03125 -21.546875 C 8.363281 -23.179688 8.347656 -24.414062 7.984375 -25.25 C 7.628906 -26.082031 6.78125 -26.738281 5.4375 -27.21875 L 5.484375 -28.203125 L 6.703125 -28.125 C 8.515625 -28.03125 9.734375 -27.453125 10.359375 -26.390625 C 11.078125 -27.378906 12.335938 -27.828125 14.140625 -27.734375 L 14.46875 -27.71875 C 14.414062 -26.6875 14.539062 -25.703125 14.84375 -24.765625 C 15.144531 -23.835938 15.484375 -22.878906 15.859375 -21.890625 L 21.203125 -7.3125 L 28.5625 -21.453125 C 29 -22.316406 29.351562 -23.164062 29.625 -24 C 29.894531 -24.84375 30.054688 -25.804688 30.109375 -26.890625 L 30.640625 -26.859375 C 32.460938 -26.765625 33.6875 -26.1875 34.3125 -25.125 C 34.65625 -25.613281 35.171875 -25.96875 35.859375 -26.1875 C 36.546875 -26.414062 37.304688 -26.507812 38.140625 -26.46875 L 39.140625 -26.421875 L 39.09375 -25.4375 C 38.269531 -25.1875 37.597656 -24.882812 37.078125 -24.53125 C 36.554688 -24.175781 36.191406 -23.679688 35.984375 -23.046875 C 35.785156 -22.410156 35.722656 -21.515625 35.796875 -20.359375 Z M 35.796875 -20.359375 "/></g></g></g><g fill="#000000" fill-opacity="1"><g transform="translate(218.941278, 65.901235)"><g><path d="M 0.734375 0.234375 L 0.3125 0.109375 L 0.625 -0.859375 C 1.882812 -0.921875 2.914062 -1.25 3.71875 -1.84375 C 4.53125 -2.445312 5.359375 -3.242188 6.203125 -4.234375 L 17.46875 -17.875 C 18.382812 -18.988281 18.773438 -20.046875 18.640625 -21.046875 C 18.503906 -22.054688 17.90625 -22.820312 16.84375 -23.34375 L 17.15625 -24.296875 L 18.484375 -23.859375 C 19.234375 -23.609375 19.863281 -23.257812 20.375 -22.8125 C 20.894531 -22.363281 21.242188 -21.84375 21.421875 -21.25 C 21.941406 -21.632812 22.601562 -21.828125 23.40625 -21.828125 C 24.21875 -21.828125 25.320312 -21.597656 26.71875 -21.140625 C 26.375 -20.441406 26.195312 -19.691406 26.1875 -18.890625 C 26.1875 -18.097656 26.203125 -17.289062 26.234375 -16.46875 L 27.328125 1.9375 C 27.429688 3.53125 27.570312 4.867188 27.75 5.953125 C 27.925781 7.046875 28.476562 7.941406 29.40625 8.640625 L 29.09375 9.609375 L 26.984375 8.921875 C 25.148438 8.304688 24.050781 7.382812 23.6875 6.15625 C 22.675781 6.9375 21.25 7.019531 19.40625 6.40625 L 17.21875 5.6875 L 17.53125 4.71875 C 19.03125 4.820312 20.070312 4.597656 20.65625 4.046875 C 21.238281 3.492188 21.5 2.582031 21.4375 1.3125 L 21.1875 -4.515625 L 11.734375 -7.625 L 8.71875 -3.625 C 7.738281 -2.300781 7.414062 -1.179688 7.75 -0.265625 C 8.09375 0.648438 8.789062 1.460938 9.84375 2.171875 L 9.53125 3.140625 L 8.3125 2.75 C 6.46875 2.132812 5.367188 1.210938 5.015625 -0.015625 C 3.992188 0.765625 2.566406 0.847656 0.734375 0.234375 Z M 20.5 -18.1875 L 13.296875 -9.515625 L 21.046875 -6.953125 Z M 20.5 -18.1875 "/></g></g></g><g fill="#000000" fill-opacity="1"><g transform="translate(251.302199, 77.017559)"><g><path d="M 9.546875 5.859375 L 6.109375 3.75 L 6.640625 2.890625 C 8.085938 3.429688 9.222656 3.703125 10.046875 3.703125 C 10.878906 3.710938 11.539062 3.535156 12.03125 3.171875 C 12.519531 2.804688 12.945312 2.328125 13.3125 1.734375 L 22.140625 -12.671875 C 22.546875 -13.335938 22.847656 -13.992188 23.046875 -14.640625 C 23.242188 -15.285156 23.234375 -15.914062 23.015625 -16.53125 C 22.796875 -17.144531 22.25 -17.71875 21.375 -18.25 C 20.34375 -18.875 18.972656 -19.019531 17.265625 -18.6875 C 15.554688 -18.351562 13.8125 -17.378906 12.03125 -15.765625 L 11.171875 -16.28125 L 12.265625 -18.0625 C 12.753906 -18.863281 13.265625 -19.488281 13.796875 -19.9375 C 14.335938 -20.382812 15 -20.671875 15.78125 -20.796875 C 14.945312 -21.441406 14.941406 -22.429688 15.765625 -23.765625 L 16.234375 -24.515625 L 17.09375 -24 C 17.039062 -23.5 17.148438 -23.113281 17.421875 -22.84375 C 17.691406 -22.570312 18.101562 -22.265625 18.65625 -21.921875 L 37.015625 -10.671875 C 37.554688 -10.335938 38.015625 -10.101562 38.390625 -9.96875 C 38.773438 -9.84375 39.164062 -9.921875 39.5625 -10.203125 L 40.421875 -9.671875 L 39.953125 -8.921875 C 39.128906 -7.585938 38.238281 -7.144531 37.28125 -7.59375 C 37.519531 -6.84375 37.5625 -6.125 37.40625 -5.4375 C 37.257812 -4.757812 36.941406 -4.019531 36.453125 -3.21875 L 35.359375 -1.4375 L 34.5 -1.96875 C 35.132812 -4.289062 35.21875 -6.285156 34.75 -7.953125 C 34.289062 -9.628906 33.546875 -10.785156 32.515625 -11.421875 C 31.660156 -11.941406 30.90625 -12.160156 30.25 -12.078125 C 29.601562 -12.003906 29.035156 -11.734375 28.546875 -11.265625 C 28.054688 -10.796875 27.609375 -10.226562 27.203125 -9.5625 L 18.375 4.84375 C 18.007812 5.4375 17.769531 6.03125 17.65625 6.625 C 17.539062 7.21875 17.675781 7.882812 18.0625 8.625 C 18.445312 9.363281 19.210938 10.257812 20.359375 11.3125 L 19.828125 12.171875 L 16.359375 10.03125 C 15.578125 9.550781 14.957031 9.015625 14.5 8.421875 C 14.039062 7.828125 13.800781 7.222656 13.78125 6.609375 C 12.613281 7.117188 11.203125 6.867188 9.546875 5.859375 Z M 9.546875 5.859375 "/></g></g></g><g fill="#000000" fill-opacity="1"><g transform="translate(279.783137, 95.650475)"><g><path d="M 30.515625 -10.78125 L 29.84375 -10.046875 C 28.757812 -10.703125 27.832031 -11.070312 27.0625 -11.15625 C 26.300781 -11.25 25.644531 -11.15625 25.09375 -10.875 C 24.539062 -10.59375 24.03125 -10.191406 23.5625 -9.671875 L 11.828125 3.3125 C 11.078125 4.144531 10.671875 5.023438 10.609375 5.953125 C 10.546875 6.890625 11.035156 8.085938 12.078125 9.546875 L 11.390625 10.296875 L 8.9375 8.078125 C 8.257812 7.472656 7.753906 6.832031 7.421875 6.15625 C 7.085938 5.488281 6.960938 4.847656 7.046875 4.234375 C 5.796875 4.523438 4.457031 4.023438 3.03125 2.734375 L 0.65625 0.59375 L 1.34375 -0.15625 C 2.882812 0.726562 4.117188 1.078125 5.046875 0.890625 C 5.984375 0.703125 6.8125 0.210938 7.53125 -0.578125 L 19.265625 -13.5625 C 20.085938 -14.476562 20.503906 -15.398438 20.515625 -16.328125 C 20.523438 -17.265625 20.039062 -18.414062 19.0625 -19.78125 L 19.734375 -20.515625 L 22.109375 -18.375 C 23.535156 -17.082031 24.171875 -15.804688 24.015625 -14.546875 C 24.617188 -14.679688 25.265625 -14.613281 25.953125 -14.34375 C 26.648438 -14.070312 27.335938 -13.632812 28.015625 -13.03125 Z M 30.515625 -10.78125 "/></g></g></g><g fill="#000000" fill-opacity="1"><g transform="translate(294.83969, 108.888959)"><g><path d="M 16.140625 22.46875 L 15.515625 21.671875 C 15.828125 21.203125 15.9375 20.78125 15.84375 20.40625 C 15.757812 20.03125 15.425781 19.625 14.84375 19.1875 C 14.34375 18.757812 13.765625 18.25 13.109375 17.65625 C 12.453125 17.0625 11.710938 16.234375 10.890625 15.171875 C 8.828125 12.472656 7.445312 9.796875 6.75 7.140625 C 6.0625 4.492188 6.160156 1.960938 7.046875 -0.453125 C 7.941406 -2.878906 9.734375 -5.125 12.421875 -7.1875 C 14.898438 -9.070312 17.429688 -10.132812 20.015625 -10.375 C 22.609375 -10.625 25.132812 -10.097656 27.59375 -8.796875 C 30.0625 -7.503906 32.328125 -5.507812 34.390625 -2.8125 C 35.210938 -1.75 35.820312 -0.820312 36.21875 -0.03125 C 36.625 0.75 36.96875 1.4375 37.25 2.03125 C 37.550781 2.6875 37.859375 3.113281 38.171875 3.3125 C 38.484375 3.507812 38.9375 3.503906 39.53125 3.296875 L 40.15625 4.09375 L 39.4375 4.625 C 38.15625 5.601562 37.171875 5.703125 36.484375 4.921875 C 36.421875 5.742188 36.175781 6.453125 35.75 7.046875 C 35.332031 7.640625 34.6875 8.269531 33.8125 8.9375 L 32.46875 9.96875 L 31.84375 9.171875 C 33.113281 6.847656 33.773438 4.691406 33.828125 2.703125 C 33.878906 0.710938 33.265625 -1.117188 31.984375 -2.796875 C 31.015625 -4.054688 29.878906 -4.894531 28.578125 -5.3125 C 27.273438 -5.738281 25.90625 -5.851562 24.46875 -5.65625 C 23.03125 -5.457031 21.613281 -5.023438 20.21875 -4.359375 C 18.832031 -3.703125 17.550781 -2.925781 16.375 -2.03125 C 15.207031 -1.125 14.117188 -0.0859375 13.109375 1.078125 C 12.109375 2.242188 11.320312 3.492188 10.75 4.828125 C 10.1875 6.171875 9.9375 7.523438 10 8.890625 C 10.070312 10.265625 10.59375 11.582031 11.5625 12.84375 C 12.84375 14.519531 14.453125 15.585938 16.390625 16.046875 C 18.335938 16.503906 20.585938 16.4375 23.140625 15.84375 L 23.765625 16.640625 L 22.484375 17.609375 C 21.492188 18.367188 20.65625 18.851562 19.96875 19.0625 C 19.28125 19.269531 18.59375 19.296875 17.90625 19.140625 C 18.414062 20.066406 18.039062 21.015625 16.78125 21.984375 Z M 16.140625 22.46875 "/></g></g></g><g fill="#000000" fill-opacity="1"><g transform="translate(67.497084, 338.439042)"><g><path d="M 27.375 -22.265625 L 27.375 -21.546875 C 26.132812 -21.234375 25.265625 -20.800781 24.765625 -20.25 C 24.273438 -19.707031 24.03125 -18.953125 24.03125 -17.984375 L 24.03125 -4.296875 C 24.03125 -3.828125 24.097656 -3.359375 24.234375 -2.890625 C 24.378906 -2.429688 24.6875 -2.019531 25.15625 -1.65625 C 25.632812 -1.289062 26.375 -0.976562 27.375 -0.71875 L 27.375 0 L 24.890625 0 C 23.378906 0 22.335938 -0.410156 21.765625 -1.234375 C 21.492188 -0.828125 21.082031 -0.519531 20.53125 -0.3125 C 19.988281 -0.101562 19.359375 0 18.640625 0 L 16.09375 0 L 16.09375 -0.71875 C 17.457031 -1.082031 18.359375 -1.539062 18.796875 -2.09375 C 19.242188 -2.65625 19.46875 -3.390625 19.46875 -4.296875 L 19.46875 -10.5 L 8.609375 -10.5 L 8.609375 -4.296875 C 8.609375 -3.328125 8.851562 -2.566406 9.34375 -2.015625 C 9.84375 -1.472656 10.734375 -1.039062 12.015625 -0.71875 L 12.015625 0 L 9.4375 0 C 7.914062 0 6.875 -0.410156 6.3125 -1.234375 C 5.738281 -0.410156 4.695312 0 3.1875 0 L 0.65625 0 L 0.65625 -0.71875 C 2.03125 -1.039062 2.9375 -1.492188 3.375 -2.078125 C 3.8125 -2.671875 4.03125 -3.410156 4.03125 -4.296875 L 4.03125 -17.984375 C 4.03125 -18.910156 3.800781 -19.65625 3.34375 -20.21875 C 2.882812 -20.789062 2 -21.234375 0.6875 -21.546875 L 0.6875 -22.265625 L 3.1875 -22.265625 C 4.695312 -22.265625 5.738281 -21.859375 6.3125 -21.046875 C 6.582031 -21.441406 6.988281 -21.742188 7.53125 -21.953125 C 8.082031 -22.160156 8.71875 -22.265625 9.4375 -22.265625 L 12.046875 -22.265625 L 12.046875 -21.546875 C 10.703125 -21.234375 9.789062 -20.789062 9.3125 -20.21875 C 8.84375 -19.65625 8.609375 -18.910156 8.609375 -17.984375 L 8.609375 -12.328125 L 19.46875 -12.328125 L 19.46875 -17.984375 C 19.46875 -18.929688 19.226562 -19.679688 18.75 -20.234375 C 18.28125 -20.796875 17.375 -21.234375 16.03125 -21.546875 L 16.03125 -22.265625 L 18.640625 -22.265625 C 19.359375 -22.265625 19.988281 -22.160156 20.53125 -21.953125 C 21.082031 -21.742188 21.492188 -21.441406 21.765625 -21.046875 C 22.335938 -21.859375 23.378906 -22.265625 24.890625 -22.265625 Z M 27.375 -22.265625 "/></g></g></g><g fill="#000000" fill-opacity="1"><g transform="translate(112.923981, 338.439042)"><g><path d="M 0.59375 0 L 0.25 0 L 0.25 -0.78125 C 1.175781 -1.144531 1.863281 -1.644531 2.3125 -2.28125 C 2.769531 -2.925781 3.1875 -3.722656 3.5625 -4.671875 L 8.578125 -17.578125 C 9.003906 -18.628906 9.039062 -19.507812 8.6875 -20.21875 C 8.34375 -20.9375 7.707031 -21.359375 6.78125 -21.484375 L 6.78125 -22.265625 L 7.890625 -22.265625 C 8.492188 -22.265625 9.039062 -22.160156 9.53125 -21.953125 C 10.03125 -21.742188 10.414062 -21.441406 10.6875 -21.046875 C 10.988281 -21.460938 11.4375 -21.769531 12.03125 -21.96875 C 12.632812 -22.164062 13.515625 -22.265625 14.671875 -22.265625 C 14.585938 -21.660156 14.640625 -21.0625 14.828125 -20.46875 C 15.015625 -19.882812 15.222656 -19.285156 15.453125 -18.671875 L 20.796875 -5.265625 C 21.253906 -4.109375 21.679688 -3.144531 22.078125 -2.375 C 22.484375 -1.613281 23.113281 -1.082031 23.96875 -0.78125 L 23.96875 0 L 22.234375 0 C 20.722656 0 19.6875 -0.410156 19.125 -1.234375 C 18.550781 -0.410156 17.507812 0 16 0 L 14.203125 0 L 14.203125 -0.78125 C 15.335938 -1.082031 16.050781 -1.507812 16.34375 -2.0625 C 16.632812 -2.625 16.601562 -3.367188 16.25 -4.296875 L 14.640625 -8.546875 L 6.84375 -8.546875 L 5.578125 -4.828125 C 5.179688 -3.609375 5.21875 -2.695312 5.6875 -2.09375 C 6.164062 -1.5 6.890625 -1.0625 7.859375 -0.78125 L 7.859375 0 L 6.84375 0 C 5.332031 0 4.289062 -0.410156 3.71875 -1.234375 C 3.15625 -0.410156 2.113281 0 0.59375 0 Z M 10.75 -18.546875 L 7.546875 -10.34375 L 13.9375 -10.34375 Z M 10.75 -18.546875 "/></g></g></g><g fill="#000000" fill-opacity="1"><g transform="translate(154.534699, 338.439042)"><g><path d="M 21.640625 0.65625 L 20.859375 0.65625 C 20.703125 0.238281 20.488281 -0.0234375 20.21875 -0.140625 C 19.945312 -0.253906 19.535156 -0.238281 18.984375 -0.09375 C 18.484375 0.0078125 17.890625 0.125 17.203125 0.25 C 16.523438 0.375 15.660156 0.4375 14.609375 0.4375 C 11.953125 0.4375 9.632812 0.0234375 7.65625 -0.796875 C 5.6875 -1.628906 4.160156 -2.894531 3.078125 -4.59375 C 1.992188 -6.300781 1.453125 -8.484375 1.453125 -11.140625 C 1.453125 -13.578125 1.992188 -15.65625 3.078125 -17.375 C 4.160156 -19.101562 5.6875 -20.425781 7.65625 -21.34375 C 9.632812 -22.257812 11.953125 -22.71875 14.609375 -22.71875 C 15.660156 -22.71875 16.523438 -22.648438 17.203125 -22.515625 C 17.890625 -22.390625 18.484375 -22.273438 18.984375 -22.171875 C 19.535156 -22.046875 19.945312 -22.035156 20.21875 -22.140625 C 20.488281 -22.242188 20.703125 -22.53125 20.859375 -23 L 21.640625 -23 L 21.640625 -22.296875 C 21.640625 -21.035156 21.226562 -20.375 20.40625 -20.3125 C 20.894531 -19.894531 21.222656 -19.410156 21.390625 -18.859375 C 21.554688 -18.316406 21.640625 -17.613281 21.640625 -16.75 L 21.640625 -15.421875 L 20.859375 -15.421875 C 20.015625 -17.316406 18.988281 -18.753906 17.78125 -19.734375 C 16.570312 -20.710938 15.132812 -21.203125 13.46875 -21.203125 C 12.226562 -21.203125 11.164062 -20.894531 10.28125 -20.28125 C 9.394531 -19.675781 8.671875 -18.878906 8.109375 -17.890625 C 7.554688 -16.898438 7.15625 -15.816406 6.90625 -14.640625 C 6.65625 -13.460938 6.53125 -12.296875 6.53125 -11.140625 C 6.53125 -9.984375 6.65625 -8.816406 6.90625 -7.640625 C 7.15625 -6.460938 7.554688 -5.378906 8.109375 -4.390625 C 8.671875 -3.398438 9.394531 -2.597656 10.28125 -1.984375 C 11.164062 -1.378906 12.226562 -1.078125 13.46875 -1.078125 C 15.132812 -1.078125 16.570312 -1.566406 17.78125 -2.546875 C 18.988281 -3.535156 20.015625 -4.96875 20.859375 -6.84375 L 21.640625 -6.84375 L 21.640625 -5.578125 C 21.640625 -4.609375 21.539062 -3.863281 21.34375 -3.34375 C 21.144531 -2.820312 20.832031 -2.378906 20.40625 -2.015625 C 21.226562 -1.890625 21.640625 -1.207031 21.640625 0.03125 Z M 21.640625 0.65625 "/></g></g></g><g fill="#000000" fill-opacity="1"><g transform="translate(195.199262, 338.439042)"><g><path d="M 12.5 -12.9375 L 22.359375 -3.5 C 23.035156 -2.875 23.703125 -2.351562 24.359375 -1.9375 C 25.023438 -1.53125 25.632812 -1.144531 26.1875 -0.78125 L 26.1875 0 L 24.546875 0 C 23.515625 0 22.679688 -0.101562 22.046875 -0.3125 C 21.421875 -0.519531 20.894531 -0.828125 20.46875 -1.234375 C 20.238281 -0.410156 19.304688 0 17.671875 0 L 15.875 0 L 15.875 -0.78125 C 16.8125 -1.039062 17.332031 -1.347656 17.4375 -1.703125 C 17.550781 -2.054688 17.375 -2.492188 16.90625 -3.015625 C 16.445312 -3.546875 15.816406 -4.179688 15.015625 -4.921875 L 8.578125 -11.265625 L 8.578125 -4.296875 C 8.578125 -3.390625 8.800781 -2.664062 9.25 -2.125 C 9.707031 -1.59375 10.585938 -1.144531 11.890625 -0.78125 L 11.890625 0 L 9.46875 0 C 7.945312 0 6.90625 -0.410156 6.34375 -1.234375 C 5.769531 -0.410156 4.726562 0 3.21875 0 L 0.71875 0 L 0.71875 -0.78125 C 1.664062 -1.019531 2.367188 -1.304688 2.828125 -1.640625 C 3.296875 -1.972656 3.609375 -2.363281 3.765625 -2.8125 C 3.921875 -3.269531 4 -3.765625 4 -4.296875 L 4 -17.671875 C 4 -18.703125 3.796875 -19.515625 3.390625 -20.109375 C 2.984375 -20.710938 2.09375 -21.171875 0.71875 -21.484375 L 0.71875 -22.265625 L 3.21875 -22.265625 C 4.726562 -22.265625 5.769531 -21.859375 6.34375 -21.046875 C 6.90625 -21.859375 7.945312 -22.265625 9.46875 -22.265625 L 11.921875 -22.265625 L 11.921875 -21.484375 C 10.617188 -21.171875 9.734375 -20.738281 9.265625 -20.1875 C 8.804688 -19.644531 8.578125 -18.910156 8.578125 -17.984375 L 8.578125 -11.921875 C 9.503906 -12.472656 10.46875 -13.117188 11.46875 -13.859375 C 12.46875 -14.609375 13.394531 -15.367188 14.25 -16.140625 C 15.113281 -16.921875 15.8125 -17.628906 16.34375 -18.265625 C 16.882812 -18.898438 17.15625 -19.375 17.15625 -19.6875 C 17.15625 -20.207031 16.9375 -20.597656 16.5 -20.859375 C 16.0625 -21.128906 15.472656 -21.335938 14.734375 -21.484375 L 14.734375 -22.265625 L 16.0625 -22.265625 C 16.832031 -22.265625 17.460938 -22.160156 17.953125 -21.953125 C 18.453125 -21.742188 18.753906 -21.441406 18.859375 -21.046875 C 19.285156 -21.441406 19.8125 -21.742188 20.4375 -21.953125 C 21.070312 -22.160156 21.90625 -22.265625 22.9375 -22.265625 L 24.734375 -22.265625 L 24.734375 -21.484375 C 23.085938 -20.847656 21.578125 -20.066406 20.203125 -19.140625 C 18.828125 -18.222656 17.519531 -17.234375 16.28125 -16.171875 C 15.039062 -15.109375 13.78125 -14.03125 12.5 -12.9375 Z M 12.5 -12.9375 "/></g></g></g><g fill="#000000" fill-opacity="1"><g transform="translate(239.112293, 338.439042)"><g><path d="M 26.28125 -22.265625 L 27.1875 -22.265625 L 27.1875 -21.484375 C 25.84375 -21.210938 24.960938 -20.800781 24.546875 -20.25 C 24.140625 -19.707031 23.9375 -19.035156 23.9375 -18.234375 L 23.9375 -5.9375 C 23.9375 -5.050781 23.960938 -4.132812 24.015625 -3.1875 C 24.078125 -2.238281 24.265625 -1.3125 24.578125 -0.40625 L 24.578125 0.375 L 23.03125 0.375 L 6.375 -16.9375 L 6.375 -4.640625 C 6.375 -3.921875 6.476562 -3.3125 6.6875 -2.8125 C 6.894531 -2.320312 7.285156 -1.914062 7.859375 -1.59375 C 8.441406 -1.269531 9.289062 -1 10.40625 -0.78125 L 10.40625 0 L 8.671875 0 C 7.160156 0 6.117188 -0.410156 5.546875 -1.234375 C 4.984375 -0.410156 3.941406 0 2.421875 0 L 0.890625 0 L 0.890625 -0.78125 C 2.023438 -1 2.863281 -1.28125 3.40625 -1.625 C 3.957031 -1.96875 4.316406 -2.394531 4.484375 -2.90625 C 4.648438 -3.425781 4.734375 -4.035156 4.734375 -4.734375 L 4.734375 -18.640625 C 4.265625 -19.210938 3.835938 -19.671875 3.453125 -20.015625 C 3.066406 -20.359375 2.648438 -20.644531 2.203125 -20.875 C 1.765625 -21.113281 1.195312 -21.316406 0.5 -21.484375 L 0.5 -22.265625 L 1.671875 -22.265625 C 2.953125 -22.265625 3.972656 -21.859375 4.734375 -21.046875 C 4.859375 -21.859375 5.488281 -22.265625 6.625 -22.265625 L 8.609375 -22.265625 C 8.710938 -21.492188 9.03125 -20.742188 9.5625 -20.015625 C 10.101562 -19.285156 10.847656 -18.429688 11.796875 -17.453125 L 22.296875 -6.65625 L 22.296875 -17.765625 C 22.296875 -18.816406 22.015625 -19.628906 21.453125 -20.203125 C 20.898438 -20.785156 19.921875 -21.210938 18.515625 -21.484375 L 18.515625 -22.265625 L 20.03125 -22.265625 C 21.539062 -22.265625 22.582031 -21.859375 23.15625 -21.046875 C 23.71875 -21.859375 24.757812 -22.265625 26.28125 -22.265625 Z M 26.28125 -22.265625 "/></g></g></g><g fill="#000000" fill-opacity="1"><g transform="translate(284.19226, 338.439042)"><g><path d="M 21.640625 0.65625 L 20.859375 0.65625 C 20.703125 0.238281 20.488281 -0.0234375 20.21875 -0.140625 C 19.945312 -0.253906 19.535156 -0.238281 18.984375 -0.09375 C 18.484375 0.0078125 17.890625 0.125 17.203125 0.25 C 16.523438 0.375 15.660156 0.4375 14.609375 0.4375 C 11.953125 0.4375 9.632812 0.0234375 7.65625 -0.796875 C 5.6875 -1.628906 4.160156 -2.894531 3.078125 -4.59375 C 1.992188 -6.300781 1.453125 -8.484375 1.453125 -11.140625 C 1.453125 -13.578125 1.992188 -15.65625 3.078125 -17.375 C 4.160156 -19.101562 5.6875 -20.425781 7.65625 -21.34375 C 9.632812 -22.257812 11.953125 -22.71875 14.609375 -22.71875 C 15.660156 -22.71875 16.523438 -22.648438 17.203125 -22.515625 C 17.890625 -22.390625 18.484375 -22.273438 18.984375 -22.171875 C 19.535156 -22.046875 19.945312 -22.035156 20.21875 -22.140625 C 20.488281 -22.242188 20.703125 -22.53125 20.859375 -23 L 21.640625 -23 L 21.640625 -22.296875 C 21.640625 -21.035156 21.226562 -20.375 20.40625 -20.3125 C 20.894531 -19.894531 21.222656 -19.410156 21.390625 -18.859375 C 21.554688 -18.316406 21.640625 -17.613281 21.640625 -16.75 L 21.640625 -15.421875 L 20.859375 -15.421875 C 20.015625 -17.316406 18.988281 -18.753906 17.78125 -19.734375 C 16.570312 -20.710938 15.132812 -21.203125 13.46875 -21.203125 C 12.226562 -21.203125 11.164062 -20.894531 10.28125 -20.28125 C 9.394531 -19.675781 8.671875 -18.878906 8.109375 -17.890625 C 7.554688 -16.898438 7.15625 -15.816406 6.90625 -14.640625 C 6.65625 -13.460938 6.53125 -12.296875 6.53125 -11.140625 C 6.53125 -9.984375 6.65625 -8.816406 6.90625 -7.640625 C 7.15625 -6.460938 7.554688 -5.378906 8.109375 -4.390625 C 8.671875 -3.398438 9.394531 -2.597656 10.28125 -1.984375 C 11.164062 -1.378906 12.226562 -1.078125 13.46875 -1.078125 C 15.132812 -1.078125 16.570312 -1.566406 17.78125 -2.546875 C 18.988281 -3.535156 20.015625 -4.96875 20.859375 -6.84375 L 21.640625 -6.84375 L 21.640625 -5.578125 C 21.640625 -4.609375 21.539062 -3.863281 21.34375 -3.34375 C 21.144531 -2.820312 20.832031 -2.378906 20.40625 -2.015625 C 21.226562 -1.890625 21.640625 -1.207031 21.640625 0.03125 Z M 21.640625 0.65625 "/></g></g></g><g fill="#1e1e2e" fill-opacity="1"><g transform="translate(315.957884, 259.620698)"><g><path d="M 5.671875 -2.296875 L 11.8125 -2.296875 L 11.8125 0 L 1.234375 0 L 1.234375 -1.359375 L 6.125 -6.140625 C 7.144531 -7.148438 7.851562 -7.957031 8.25 -8.5625 C 8.65625 -9.164062 8.859375 -9.800781 8.859375 -10.46875 C 8.859375 -11.132812 8.675781 -11.664062 8.3125 -12.0625 C 7.945312 -12.457031 7.429688 -12.65625 6.765625 -12.65625 C 6.054688 -12.65625 5.515625 -12.429688 5.140625 -11.984375 C 4.765625 -11.546875 4.53125 -10.890625 4.4375 -10.015625 L 4.421875 -9.796875 L 1.53125 -9.796875 L 1.5625 -10.015625 C 1.707031 -11.566406 2.25 -12.753906 3.1875 -13.578125 C 4.132812 -14.410156 5.421875 -14.828125 7.046875 -14.828125 C 8.597656 -14.828125 9.796875 -14.445312 10.640625 -13.6875 C 11.492188 -12.9375 11.921875 -11.921875 11.921875 -10.640625 C 11.921875 -9.742188 11.664062 -8.898438 11.15625 -8.109375 C 10.65625 -7.316406 9.726562 -6.253906 8.375 -4.921875 Z M 5.671875 -2.296875 "/></g></g></g><g fill="#1e1e2e" fill-opacity="1"><g transform="translate(329.094632, 259.620698)"><g><path d="M 6.578125 -14.8125 C 10.335938 -14.8125 12.21875 -12.289062 12.21875 -7.25 C 12.21875 -2.21875 10.335938 0.296875 6.578125 0.296875 C 2.804688 0.296875 0.921875 -2.21875 0.921875 -7.25 C 0.921875 -12.289062 2.804688 -14.8125 6.578125 -14.8125 Z M 4.625 -3.1875 C 5.039062 -2.3125 5.691406 -1.875 6.578125 -1.875 C 7.460938 -1.875 8.113281 -2.3125 8.53125 -3.1875 C 8.945312 -4.0625 9.15625 -5.414062 9.15625 -7.25 C 9.15625 -9.101562 8.945312 -10.460938 8.53125 -11.328125 C 8.113281 -12.203125 7.460938 -12.640625 6.578125 -12.640625 C 5.679688 -12.640625 5.023438 -12.203125 4.609375 -11.328125 C 4.203125 -10.460938 4 -9.101562 4 -7.25 C 4 -5.414062 4.207031 -4.0625 4.625 -3.1875 Z M 4.625 -3.1875 "/></g></g></g><g fill="#1e1e2e" fill-opacity="1"><g transform="translate(342.23138, 259.620698)"><g><path d="M 5.671875 -2.296875 L 11.8125 -2.296875 L 11.8125 0 L 1.234375 0 L 1.234375 -1.359375 L 6.125 -6.140625 C 7.144531 -7.148438 7.851562 -7.957031 8.25 -8.5625 C 8.65625 -9.164062 8.859375 -9.800781 8.859375 -10.46875 C 8.859375 -11.132812 8.675781 -11.664062 8.3125 -12.0625 C 7.945312 -12.457031 7.429688 -12.65625 6.765625 -12.65625 C 6.054688 -12.65625 5.515625 -12.429688 5.140625 -11.984375 C 4.765625 -11.546875 4.53125 -10.890625 4.4375 -10.015625 L 4.421875 -9.796875 L 1.53125 -9.796875 L 1.5625 -10.015625 C 1.707031 -11.566406 2.25 -12.753906 3.1875 -13.578125 C 4.132812 -14.410156 5.421875 -14.828125 7.046875 -14.828125 C 8.597656 -14.828125 9.796875 -14.445312 10.640625 -13.6875 C 11.492188 -12.9375 11.921875 -11.921875 11.921875 -10.640625 C 11.921875 -9.742188 11.664062 -8.898438 11.15625 -8.109375 C 10.65625 -7.316406 9.726562 -6.253906 8.375 -4.921875 Z M 5.671875 -2.296875 "/></g></g></g><g fill="#1e1e2e" fill-opacity="1"><g transform="translate(355.368129, 259.620698)"><g><path d="M 12.421875 -3.421875 L 10.640625 -3.421875 L 10.640625 0 L 7.734375 0 L 7.734375 -3.421875 L 0.75 -3.421875 L 0.75 -4.984375 L 7.546875 -14.515625 L 10.640625 -14.515625 L 10.640625 -5.71875 L 12.421875 -5.71875 Z M 7.734375 -5.71875 L 7.734375 -11.234375 C 7.410156 -10.671875 7.085938 -10.160156 6.765625 -9.703125 L 3.9375 -5.71875 Z M 7.734375 -5.71875 "/></g></g></g><g fill="#1e1e2e" fill-opacity="1"><g transform="translate(11.243245, 259.620698)"><g><path d="M 12.34375 -2.296875 L 12.34375 0 L 1.875 0 L 1.875 -14.515625 L 12.140625 -14.515625 L 12.140625 -12.234375 L 4.78125 -12.234375 L 4.78125 -8.40625 L 11.609375 -8.40625 L 11.609375 -6.125 L 4.78125 -6.125 L 4.78125 -2.296875 Z M 12.34375 -2.296875 "/></g></g></g><g fill="#1e1e2e" fill-opacity="1"><g transform="translate(24.190823, 259.620698)"><g><path d="M 6.6875 -14.8125 C 8.34375 -14.8125 9.609375 -14.394531 10.484375 -13.5625 C 11.359375 -12.738281 11.878906 -11.628906 12.046875 -10.234375 L 9.078125 -10.234375 C 8.992188 -10.992188 8.742188 -11.582031 8.328125 -12 C 7.910156 -12.425781 7.328125 -12.640625 6.578125 -12.640625 C 5.972656 -12.640625 5.484375 -12.488281 5.109375 -12.1875 C 4.734375 -11.894531 4.546875 -11.472656 4.546875 -10.921875 C 4.546875 -10.296875 4.769531 -9.804688 5.21875 -9.453125 C 5.675781 -9.109375 6.484375 -8.800781 7.640625 -8.53125 C 9.222656 -8.164062 10.390625 -7.613281 11.140625 -6.875 C 11.890625 -6.132812 12.265625 -5.175781 12.265625 -4 C 12.265625 -2.675781 11.742188 -1.628906 10.703125 -0.859375 C 9.671875 -0.0859375 8.398438 0.296875 6.890625 0.296875 C 5.128906 0.296875 3.722656 -0.09375 2.671875 -0.875 C 1.617188 -1.65625 1.023438 -2.796875 0.890625 -4.296875 L 3.84375 -4.296875 C 4 -3.523438 4.347656 -2.925781 4.890625 -2.5 C 5.441406 -2.082031 6.097656 -1.875 6.859375 -1.875 C 7.523438 -1.875 8.085938 -2.039062 8.546875 -2.375 C 9.003906 -2.707031 9.234375 -3.148438 9.234375 -3.703125 C 9.234375 -4.316406 9.007812 -4.8125 8.5625 -5.1875 C 8.125 -5.570312 7.378906 -5.890625 6.328125 -6.140625 C 4.703125 -6.535156 3.488281 -7.054688 2.6875 -7.703125 C 1.894531 -8.359375 1.5 -9.3125 1.5 -10.5625 C 1.5 -11.851562 2 -12.882812 3 -13.65625 C 4.007812 -14.425781 5.238281 -14.8125 6.6875 -14.8125 Z M 6.6875 -14.8125 "/></g></g></g><g fill="#1e1e2e" fill-opacity="1"><g transform="translate(36.970257, 259.620698)"><g><path d="M 13.234375 -12.234375 L 8.3125 -12.234375 L 8.3125 0 L 5.40625 0 L 5.40625 -12.234375 L 0.484375 -12.234375 L 0.484375 -14.515625 L 13.234375 -14.515625 Z M 13.234375 -12.234375 "/></g></g></g><g fill="#1e1e2e" fill-opacity="1"><g transform="translate(50.06497, 259.620698)"><g><path d="M 8.734375 -14.421875 C 10.523438 -14.210938 11.96875 -13.523438 13.0625 -12.359375 C 14.15625 -11.203125 14.703125 -9.5625 14.703125 -7.4375 C 14.703125 -5.3125 14.140625 -3.609375 13.015625 -2.328125 C 11.890625 -1.046875 10.445312 -0.296875 8.6875 -0.078125 C 8.195312 -0.0234375 7.578125 0 6.828125 0 L 1.875 0 L 1.875 -14.515625 L 6.875 -14.515625 C 7.613281 -14.515625 8.234375 -14.484375 8.734375 -14.421875 Z M 8.03125 -2.359375 C 9.144531 -2.492188 10.019531 -3.003906 10.65625 -3.890625 C 11.300781 -4.773438 11.625 -5.945312 11.625 -7.40625 C 11.625 -8.800781 11.304688 -9.90625 10.671875 -10.71875 C 10.046875 -11.539062 9.1875 -12.019531 8.09375 -12.15625 C 7.65625 -12.207031 7.140625 -12.234375 6.546875 -12.234375 L 4.78125 -12.234375 L 4.78125 -2.296875 L 6.5 -2.296875 C 7.21875 -2.296875 7.726562 -2.316406 8.03125 -2.359375 Z M 8.03125 -2.359375 "/></g></g></g><g clip-path="url(#89a6855a07)"><path fill="#1e1e2e" d="M 130.832031 264.085938 L 247.464844 264.085938 C 248.417969 264.085938 249.132812 263.371094 249.132812 262.417969 L 249.132812 247.660156 C 249.132812 246.710938 248.417969 245.996094 247.464844 245.996094 L 234.257812 245.996094 L 234.257812 182.320312 L 241.039062 182.320312 C 241.992188 182.320312 242.707031 181.609375 242.707031 180.65625 L 242.707031 173.039062 L 246.15625 173.039062 C 246.871094 173.039062 247.585938 172.5625 247.824219 171.847656 C 248.0625 171.132812 247.824219 170.300781 247.109375 169.945312 L 190.695312 130.191406 C 190.101562 129.714844 189.269531 129.714844 188.671875 130.191406 L 131.070312 169.945312 C 130.472656 170.421875 130.117188 171.132812 130.355469 171.847656 C 130.59375 172.5625 131.308594 173.039062 132.019531 173.039062 L 135.472656 173.039062 L 135.472656 180.65625 C 135.472656 181.609375 136.1875 182.320312 137.140625 182.320312 L 143.921875 182.320312 L 143.921875 245.996094 L 130.832031 245.996094 C 129.878906 245.996094 129.164062 246.710938 129.164062 247.660156 L 129.164062 262.417969 C 129.164062 263.371094 129.878906 264.085938 130.832031 264.085938 Z M 239.96875 179.464844 L 234.257812 179.464844 L 234.257812 173.039062 L 239.96875 173.039062 Z M 135.589844 170.300781 L 189.625 132.929688 L 242.824219 170.300781 Z M 217.59375 238.019531 L 217.59375 182.320312 L 231.398438 182.320312 L 231.398438 238.019531 Z M 231.398438 240.878906 L 231.398438 245.996094 L 217.59375 245.996094 L 217.59375 240.878906 Z M 217.59375 179.464844 L 217.59375 173.039062 L 231.398438 173.039062 L 231.398438 179.464844 Z M 204.144531 208.148438 L 174.152344 208.148438 C 173.199219 208.148438 172.488281 208.863281 172.488281 209.8125 L 172.488281 245.996094 L 163.441406 245.996094 L 163.441406 173.039062 L 214.855469 173.039062 L 214.855469 245.996094 L 205.8125 245.996094 L 205.8125 209.8125 C 205.8125 208.863281 205.097656 208.148438 204.144531 208.148438 Z M 202.953125 211.003906 L 202.953125 245.996094 L 190.578125 245.996094 L 190.578125 211.003906 Z M 187.71875 211.003906 L 187.71875 245.996094 L 175.34375 245.996094 L 175.34375 211.003906 Z M 146.898438 238.019531 L 146.898438 182.320312 L 160.703125 182.320312 L 160.703125 238.019531 Z M 160.703125 240.878906 L 160.703125 245.996094 L 146.898438 245.996094 L 146.898438 240.878906 Z M 146.898438 179.464844 L 146.898438 173.039062 L 160.703125 173.039062 L 160.703125 179.464844 Z M 138.449219 179.464844 L 138.449219 173.039062 L 144.160156 173.039062 L 144.160156 179.464844 Z M 132.019531 248.851562 L 246.394531 248.851562 L 246.394531 261.230469 L 132.019531 261.230469 Z M 132.019531 248.851562 " fill-opacity="1" fill-rule="nonzero"/></g><path fill="#1e1e2e" d="M 189.148438 142.925781 C 184.507812 142.925781 180.699219 146.734375 180.699219 151.378906 C 180.699219 156.019531 184.507812 159.828125 189.148438 159.828125 C 193.789062 159.828125 197.597656 156.019531 197.597656 151.378906 C 197.597656 146.734375 193.789062 142.925781 189.148438 142.925781 Z M 189.148438 157.089844 C 186.054688 157.089844 183.554688 154.589844 183.554688 151.496094 C 183.554688 148.402344 186.054688 145.902344 189.148438 145.902344 C 192.242188 145.902344 194.742188 148.402344 194.742188 151.496094 C 194.863281 154.589844 192.242188 157.089844 189.148438 157.089844 Z M 189.148438 157.089844 " fill-opacity="1" fill-rule="nonzero"/><path fill="#1e1e2e" d="M 212.117188 254.445312 L 166.296875 254.445312 C 165.464844 254.445312 164.871094 255.039062 164.871094 255.875 C 164.871094 256.707031 165.464844 257.300781 166.296875 257.300781 L 212.117188 257.300781 C 212.953125 257.300781 213.546875 256.707031 213.546875 255.875 C 213.429688 255.039062 212.832031 254.445312 212.117188 254.445312 Z M 212.117188 254.445312 " fill-opacity="1" fill-rule="nonzero"/></svg>