<svg xmlns="http://www.w3.org/2000/svg" xmlns:xlink="http://www.w3.org/1999/xlink" width="48" zoomAndPan="magnify" viewBox="0 0 36 36.000001" height="48" preserveAspectRatio="xMidYMid meet" version="1.0"><defs><clipPath id="92d4a82595"><path d="M 2.347656 0 L 33.726562 0 L 33.726562 35.027344 L 2.347656 35.027344 Z M 2.347656 0 " clip-rule="nonzero"/></clipPath></defs><g clip-path="url(#92d4a82595)"><path fill="#1e1e2e" d="M 2.78125 35.027344 L 33.210938 35.027344 C 33.457031 35.027344 33.644531 34.839844 33.644531 34.589844 L 33.644531 30.742188 C 33.644531 30.492188 33.457031 30.304688 33.210938 30.304688 L 29.761719 30.304688 L 29.761719 13.695312 L 31.535156 13.695312 C 31.78125 13.695312 31.96875 13.507812 31.96875 13.257812 L 31.96875 11.273438 L 32.867188 11.273438 C 33.054688 11.273438 33.242188 11.148438 33.304688 10.960938 C 33.367188 10.777344 33.304688 10.558594 33.117188 10.464844 L 18.398438 0.09375 C 18.242188 -0.03125 18.027344 -0.03125 17.871094 0.09375 L 2.84375 10.464844 C 2.6875 10.589844 2.59375 10.777344 2.65625 10.960938 C 2.71875 11.148438 2.90625 11.273438 3.089844 11.273438 L 3.992188 11.273438 L 3.992188 13.257812 C 3.992188 13.507812 4.179688 13.695312 4.425781 13.695312 L 6.195312 13.695312 L 6.195312 30.304688 L 2.78125 30.304688 C 2.53125 30.304688 2.347656 30.492188 2.347656 30.742188 L 2.347656 34.589844 C 2.347656 34.839844 2.53125 35.027344 2.78125 35.027344 Z M 31.253906 12.949219 L 29.761719 12.949219 L 29.761719 11.273438 L 31.253906 11.273438 Z M 4.023438 10.558594 L 18.121094 0.808594 L 32 10.558594 Z M 25.417969 28.226562 L 25.417969 13.695312 L 29.019531 13.695312 L 29.019531 28.226562 Z M 29.019531 28.972656 L 29.019531 30.304688 L 25.417969 30.304688 L 25.417969 28.972656 Z M 25.417969 12.949219 L 25.417969 11.273438 L 29.019531 11.273438 L 29.019531 12.949219 Z M 21.90625 20.433594 L 14.082031 20.433594 C 13.835938 20.433594 13.648438 20.617188 13.648438 20.867188 L 13.648438 30.304688 L 11.289062 30.304688 L 11.289062 11.273438 L 24.703125 11.273438 L 24.703125 30.304688 L 22.34375 30.304688 L 22.34375 20.867188 C 22.34375 20.617188 22.15625 20.433594 21.90625 20.433594 Z M 21.597656 21.175781 L 21.597656 30.304688 L 18.367188 30.304688 L 18.367188 21.175781 Z M 17.621094 21.175781 L 17.621094 30.304688 L 14.394531 30.304688 L 14.394531 21.175781 Z M 6.972656 28.226562 L 6.972656 13.695312 L 10.574219 13.695312 L 10.574219 28.226562 Z M 10.574219 28.972656 L 10.574219 30.304688 L 6.972656 30.304688 L 6.972656 28.972656 Z M 6.972656 12.949219 L 6.972656 11.273438 L 10.574219 11.273438 L 10.574219 12.949219 Z M 4.769531 12.949219 L 4.769531 11.273438 L 6.257812 11.273438 L 6.257812 12.949219 Z M 3.089844 31.050781 L 32.929688 31.050781 L 32.929688 34.28125 L 3.089844 34.28125 Z M 3.089844 31.050781 " fill-opacity="1" fill-rule="nonzero"/></g><path fill="#1e1e2e" d="M 17.996094 3.417969 C 16.785156 3.417969 15.792969 4.410156 15.792969 5.621094 C 15.792969 6.832031 16.785156 7.824219 17.996094 7.824219 C 19.207031 7.824219 20.199219 6.832031 20.199219 5.621094 C 20.199219 4.410156 19.207031 3.417969 17.996094 3.417969 Z M 17.996094 7.113281 C 17.1875 7.113281 16.535156 6.460938 16.535156 5.652344 C 16.535156 4.84375 17.1875 4.191406 17.996094 4.191406 C 18.804688 4.191406 19.453125 4.84375 19.453125 5.652344 C 19.484375 6.460938 18.804688 7.113281 17.996094 7.113281 Z M 17.996094 7.113281 " fill-opacity="1" fill-rule="nonzero"/><path fill="#1e1e2e" d="M 23.988281 32.511719 L 12.035156 32.511719 C 11.816406 32.511719 11.660156 32.664062 11.660156 32.882812 C 11.660156 33.101562 11.816406 33.257812 12.035156 33.257812 L 23.988281 33.257812 C 24.207031 33.257812 24.359375 33.101562 24.359375 32.882812 C 24.328125 32.664062 24.175781 32.511719 23.988281 32.511719 Z M 23.988281 32.511719 " fill-opacity="1" fill-rule="nonzero"/></svg>